<?xml version="1.0" standalone="no"?>
<!DOCTYPE svg PUBLIC "-//W3C//DTD SVG 20010904//EN"
 "http://www.w3.org/TR/2001/REC-SVG-20010904/DTD/svg10.dtd">
<svg version="1.0" xmlns="http://www.w3.org/2000/svg"
 width="435.000000pt" height="574.000000pt" viewBox="0 0 435.000000 574.000000"
 preserveAspectRatio="xMidYMid meet">

<g transform="translate(0.000000,574.000000) scale(0.100000,-0.100000)"
fill="#000000" stroke="none">
<path d="M3209 4162 c-48 -12 -100 -42 -141 -79 -26 -24 -52 -43 -58 -43 -5 0
-10 17 -10 38 l0 37 -16 -30 c-20 -39 -21 -40 -39 -25 -23 19 -28 6 -10 -29 8
-17 12 -31 7 -31 -5 0 -7 -13 -4 -29 3 -23 -2 -36 -23 -55 -27 -26 -28 -26 -5
-26 19 0 20 -3 10 -15 -6 -8 -14 -27 -16 -42 -6 -50 -15 -97 -30 -161 -15 -62
-11 -122 7 -122 5 0 9 9 9 21 0 31 50 198 72 244 37 74 52 84 121 79 34 -3 88
-12 120 -21 57 -16 61 -16 130 6 116 37 132 41 160 41 77 0 165 -89 143 -146
-3 -8 -1 -24 4 -35 8 -14 7 -19 -1 -19 -6 0 -9 -6 -6 -13 3 -7 -4 -19 -15 -26
-15 -9 -17 -16 -9 -24 16 -16 14 -24 -11 -30 -18 -5 -19 -9 -9 -21 7 -8 10
-20 6 -26 -4 -6 -2 -16 3 -23 13 -16 21 -68 10 -61 -5 3 -16 -2 -23 -12 -13
-18 -14 -18 -15 -1 0 17 -33 57 -47 57 -4 0 -2 -5 4 -11 6 -6 9 -18 6 -25 -4
-11 -18 -3 -50 27 l-46 42 -96 -7 c-68 -5 -105 -12 -129 -26 -18 -11 -42 -20
-53 -20 -10 0 -19 -5 -19 -11 0 -6 -17 -1 -37 9 -21 11 -66 28 -100 36 -51 14
-66 15 -83 4 -11 -7 -20 -16 -20 -21 0 -4 -4 -6 -8 -3 -4 2 -8 -3 -8 -12 -1
-9 -4 -30 -8 -47 -3 -16 -3 -24 0 -17 9 18 22 15 29 -8 7 -22 50 -28 58 -7 3
8 11 5 26 -11 16 -16 18 -23 9 -26 -51 -15 -53 -17 -38 -26 8 -6 24 -10 36
-10 26 0 104 55 104 74 0 7 8 20 18 28 24 22 62 7 62 -25 0 -42 12 -87 21 -81
5 3 7 10 4 15 -11 16 20 10 73 -16 54 -26 116 -32 142 -15 13 9 13 12 -3 24
-26 20 -11 25 70 19 66 -5 71 -7 76 -30 6 -31 -2 -65 -14 -57 -5 3 -9 -2 -9
-10 0 -9 -4 -17 -10 -17 -5 -1 -15 -2 -21 -3 -6 0 -17 -9 -24 -19 -7 -10 -16
-18 -19 -18 -14 2 -56 -32 -56 -45 0 -20 -43 -38 -73 -30 -16 4 -34 24 -56 66
-35 65 -51 76 -48 33 l2 -28 -75 -1 c-42 0 -81 -4 -88 -8 -7 -4 -19 -2 -27 4
-12 10 -15 9 -15 -9 0 -14 -6 -21 -19 -21 -18 0 -17 4 10 56 32 60 25 61 -36
6 -39 -36 -75 -107 -75 -150 0 -22 -2 -24 -11 -12 -8 12 -9 11 -6 -5 2 -11 9
-19 15 -18 15 4 15 0 1 -30 -15 -34 -62 -60 -78 -44 -10 9 -11 8 -5 -7 6 -16
4 -18 -14 -14 -12 4 -25 2 -28 -4 -4 -5 -19 -8 -33 -5 -20 4 -35 -1 -56 -19
-15 -13 -45 -32 -67 -41 -23 -10 -37 -22 -34 -30 6 -15 -10 -27 -18 -14 -4 5
5 22 19 37 14 15 25 31 25 35 0 5 10 11 23 14 13 4 23 14 24 26 2 23 -2 21
-58 -29 -112 -98 -153 -150 -231 -295 -10 -17 -18 -27 -18 -22 0 6 -14 -6 -30
-25 -16 -19 -34 -36 -40 -36 -5 -1 -13 -2 -17 -3 -3 0 1 -9 9 -18 9 -10 21
-29 28 -43 11 -22 8 -21 -18 7 -25 27 -34 31 -58 24 -28 -7 -48 -41 -25 -41 6
0 11 -5 11 -10 0 -7 -6 -7 -19 0 -21 11 -71 -2 -71 -19 0 -5 -10 -13 -22 -17
-13 -4 -25 -10 -28 -15 -7 -10 -129 105 -170 161 -47 63 -50 66 -43 42 6 -26
-5 -92 -16 -92 -4 0 -13 12 -20 27 -11 25 -13 25 -29 9 -16 -17 -16 -19 6 -33
12 -9 22 -23 22 -32 0 -26 -61 -80 -90 -79 -36 1 -80 18 -80 32 1 18 33 53 66
69 17 9 46 33 63 53 27 31 32 42 26 68 -3 17 -9 48 -12 69 -3 20 -9 37 -13 37
-5 0 -14 16 -20 34 -8 24 -16 33 -26 29 -8 -3 -14 1 -14 10 0 8 -7 20 -15 27
-13 11 -20 11 -40 0 -32 -17 -31 -28 5 -72 32 -39 31 -54 -7 -96 -7 -7 -13
-22 -13 -33 0 -22 -35 -27 -43 -5 -3 7 -9 55 -13 106 -5 75 -4 95 7 104 25 19
59 73 58 93 0 10 -3 13 -6 6 -8 -21 -51 -15 -58 7 -8 25 -20 25 -45 0 -15 -15
-20 -33 -20 -69 0 -45 -2 -50 -30 -61 -17 -7 -32 -11 -34 -9 -2 2 -8 13 -14
24 -10 17 -11 16 -6 -11 5 -24 1 -36 -15 -51 l-22 -20 38 1 c34 1 39 -3 55
-36 10 -21 23 -38 29 -38 5 0 7 -4 4 -10 -3 -5 -1 -10 4 -10 15 0 14 -47 -1
-56 -8 -5 -9 -2 -5 9 3 9 1 19 -5 23 -6 4 -8 3 -4 -4 3 -6 2 -13 -4 -17 -5 -3
-10 -1 -10 6 0 7 -3 9 -7 5 -4 -4 3 -16 16 -26 22 -16 23 -20 12 -48 -7 -16
-11 -45 -9 -63 3 -33 6 -35 78 -58 68 -22 139 -48 98 -37 -9 3 -29 1 -45 -3
l-28 -8 30 -13 30 -12 -24 -9 c-22 -9 -31 -3 -79 43 -32 31 -56 48 -59 41 -2
-7 -18 -29 -34 -50 l-31 -38 29 -23 c15 -12 69 -48 118 -79 162 -100 189 -120
262 -191 40 -39 80 -73 90 -75 119 -32 108 -32 190 1 43 16 89 33 103 37 14 4
40 15 58 26 l32 18 0 -34 c0 -40 -46 -290 -59 -321 -6 -14 -46 -36 -125 -68
l-116 -49 -41 47 c-22 25 -47 46 -54 46 -7 0 -27 -13 -44 -29 -16 -15 -44 -31
-61 -34 -22 -5 -30 -12 -30 -28 0 -21 0 -21 -21 2 -11 13 -17 18 -13 10 5 -10
3 -12 -7 -5 -24 15 -188 5 -278 -16 -78 -19 -105 -20 -282 -14 -171 6 -199 5
-219 -9 -20 -14 -25 -14 -37 -1 -8 8 -26 14 -41 14 -15 0 -133 6 -262 14 -129
8 -242 15 -250 15 -49 3 -98 16 -122 32 -32 23 -57 24 -64 4 -9 -21 -86 -19
-133 4 l-39 18 -16 -33 c-8 -19 -20 -34 -26 -34 -7 0 -10 -268 -10 -810 l0
-810 650 0 c513 0 650 3 650 13 0 9 2 9 8 0 4 -6 22 -11 40 -11 31 1 33 3 27
30 -4 15 -4 28 0 28 12 0 35 -28 35 -43 0 -13 50 -16 375 -17 331 -1 375 1
375 15 0 8 7 15 15 15 18 0 20 -17 3 -23 -7 -2 26 -5 75 -5 48 0 87 1 87 2 0
2 -13 20 -30 41 -16 21 -30 41 -30 46 0 17 26 -2 38 -29 22 -48 42 -69 51 -53
7 11 9 11 14 0 4 -12 7 -11 16 1 7 10 11 11 11 3 0 -9 16 -13 45 -13 43 0 61
15 31 26 -17 6 -30 34 -16 34 5 0 17 -13 27 -30 21 -36 53 -40 54 -7 l0 22 11
-23 c14 -29 27 -29 22 1 l-5 22 12 -22 c11 -21 13 -22 329 -23 250 0 319 2
323 12 4 10 6 10 6 1 1 -10 118 -13 551 -13 l550 0 0 377 c0 293 -3 374 -12
365 -22 -22 -32 -12 -10 11 l22 23 0 1172 0 1172 -38 28 c-22 15 -58 36 -80
46 -23 11 -42 22 -42 27 0 9 97 -13 128 -30 25 -13 38 -9 28 8 -16 26 -303 87
-498 107 -43 4 -73 13 -80 22 -7 9 -8 13 -2 10 13 -8 60 123 51 145 -4 10 -13
14 -27 10 -16 -4 -19 -2 -14 11 3 9 9 16 13 16 13 0 32 140 33 242 0 85 -4
112 -20 144 -11 21 -26 59 -33 84 -7 25 -20 52 -28 60 -36 34 -93 72 -124 82
-17 5 -45 16 -62 23 -28 12 -306 18 -346 7z m-246 -669 c-7 -2 -19 -2 -25 0
-7 3 -2 5 12 5 14 0 19 -2 13 -5z m371 -88 c3 -8 1 -15 -3 -15 -5 0 -11 7 -15
15 -3 8 -1 15 3 15 5 0 11 -7 15 -15z m356 -54 c0 -10 -6 -21 -13 -24 -10 -4
-13 2 -9 19 5 28 22 32 22 5z m61 -45 c-9 -10 -9 -15 -1 -18 13 -4 -53 -78
-69 -78 -6 0 -11 2 -11 4 0 2 -3 11 -6 19 -4 11 1 13 19 10 14 -3 29 2 38 13
13 15 12 16 -8 10 -43 -14 -44 6 -1 30 51 27 54 28 39 10z m-52 -291 c23 -60
46 -97 93 -151 35 -39 74 -84 87 -100 42 -51 154 -176 228 -256 85 -92 182
-238 232 -351 5 -12 -42 13 -51 27 -5 6 -8 7 -8 1 0 -5 -21 -11 -47 -12 -41
-1 -84 -8 -175 -26 -10 -2 -21 -6 -24 -10 -4 -4 -21 -7 -37 -7 -22 0 -28 -4
-23 -16 5 -12 1 -14 -15 -9 -15 5 -19 4 -15 -4 6 -9 -17 -16 -27 -8 -2 1 -12
-5 -22 -13 -34 -28 -105 -64 -112 -56 -4 4 114 95 170 131 15 10 25 20 23 22
-3 3 -19 -5 -37 -17 -20 -15 -47 -23 -75 -24 -31 -1 -43 -5 -39 -13 2 -8 -3
-13 -13 -13 -9 0 -30 -7 -46 -15 -15 -8 -34 -15 -41 -15 -6 0 -22 -9 -35 -20
-13 -11 -29 -20 -35 -20 -7 0 -16 -7 -19 -16 -4 -10 -13 -13 -25 -9 -10 3 -23
-1 -31 -10 -12 -14 -70 -47 -70 -40 0 3 9 22 21 44 11 22 17 46 13 53 -4 7 -4
10 1 6 11 -10 35 10 35 29 0 9 -6 13 -15 9 -8 -3 -15 -1 -15 4 0 6 5 10 12 10
6 0 3 7 -8 15 -17 13 -16 14 13 5 20 -5 35 -5 39 1 3 5 0 8 -7 7 -7 -2 -18 8
-25 21 -7 13 -20 28 -28 33 -9 5 -14 14 -11 19 4 5 11 6 17 3 7 -4 8 -2 4 4
-8 13 23 72 37 72 5 0 4 6 -2 14 -10 12 -8 13 9 9 11 -3 20 -2 19 3 -2 5 5 26
14 48 9 21 17 42 17 47 0 5 4 9 9 9 5 0 11 9 14 20 3 12 1 18 -5 14 -7 -5 -9
2 -4 21 6 25 6 26 -9 11 -9 -9 -14 -20 -10 -25 3 -5 -3 -16 -13 -23 -10 -7
-22 -26 -26 -42 -5 -22 -10 -26 -19 -17 -6 6 -22 11 -35 11 -18 0 -23 4 -18
16 3 9 6 21 6 26 0 6 3 8 6 5 4 -4 25 11 47 33 21 22 44 37 50 33 6 -3 7 -1 3
5 -4 6 0 22 9 36 9 13 14 30 13 37 -2 9 4 13 16 11 17 -3 18 -1 7 12 -7 8 -9
21 -5 27 5 9 10 5 16 -10 9 -25 26 -24 42 1 7 11 6 28 -3 56 -8 22 -10 45 -7
51 4 6 3 11 -1 11 -9 0 -87 -122 -113 -175 -20 -43 -26 -45 -92 -36 -10 1 22
32 50 49 18 10 22 10 22 0 0 -9 3 -8 10 2 13 20 13 33 0 25 -6 -4 -5 5 2 20 8
19 9 28 0 37 -8 8 -8 17 0 31 8 16 12 17 19 6 6 -10 9 -6 9 14 0 15 7 30 15
33 8 4 12 10 9 15 -3 5 -1 9 3 9 14 0 8 137 -7 155 -7 8 -10 18 -6 22 3 3 6 0
6 -7 0 -12 2 -12 13 -1 10 11 10 14 0 18 -7 3 -13 11 -13 19 0 9 4 13 9 10 5
-4 8 2 6 11 -7 37 -14 95 -11 92 2 -2 18 -40 35 -84z m-39 26 c0 -64 -68 -153
-210 -272 -36 -30 -90 -81 -120 -114 -110 -118 -150 -155 -150 -137 0 9 -13
40 -29 69 l-28 51 61 32 c107 56 288 183 356 250 66 66 83 92 95 144 5 23 8
27 16 15 5 -7 9 -25 9 -38z m-631 17 c2 24 119 10 128 -15 11 -27 -35 -36
-102 -19 -18 5 -25 2 -25 -9 0 -25 57 -58 108 -63 26 -2 53 -8 59 -14 7 -6 22
-8 32 -5 17 4 18 2 11 -19 -6 -15 -6 -24 0 -24 6 0 10 -10 10 -22 0 -13 -4
-18 -8 -12 -10 15 -42 25 -42 13 0 -6 -4 -7 -10 -4 -5 3 -10 14 -10 23 0 19
-55 28 -66 11 -4 -6 -10 -4 -17 5 -15 19 -61 10 -53 -10 6 -15 1 -17 -30 -8
-15 4 -24 19 -33 54 -7 27 -9 55 -5 61 5 8 3 9 -6 4 -18 -11 -10 6 20 43 21
27 26 29 32 14 4 -9 7 -11 7 -4z m-79 -103 c0 -8 -17 -41 -37 -75 -36 -57 -40
-60 -70 -55 -35 6 -45 -8 -15 -21 9 -4 20 -7 23 -6 4 1 9 -20 13 -45 3 -25 12
-53 19 -61 10 -13 9 -14 -2 -8 -7 5 -19 24 -27 42 -16 38 -44 37 -44 -2 0 -15
-6 -24 -15 -24 -8 0 -14 3 -12 8 1 4 -1 8 -5 10 -20 6 -28 0 -28 -23 0 -14 5
-25 10 -25 6 0 10 -4 10 -9 0 -6 -8 -9 -17 -9 -33 1 -75 -21 -70 -37 4 -9 -2
-16 -16 -20 -12 -4 -30 -9 -39 -11 -27 -8 -22 22 5 30 l22 7 -23 11 c-13 7
-21 17 -18 25 3 8 1 11 -4 8 -5 -3 -18 -1 -27 4 -16 9 -16 10 5 11 23 0 32 20
10 20 -8 1 -6 6 5 14 9 7 17 18 17 23 0 14 52 24 64 12 6 -5 3 -15 -6 -26 -22
-25 -18 -68 6 -68 20 0 57 53 49 68 -7 11 56 66 71 63 6 -2 8 -1 4 1 -22 13
-2 55 58 121 62 67 84 80 84 47z m-250 -65 c0 -5 -4 -10 -10 -10 -5 0 -10 5
-10 10 0 6 5 10 10 10 6 0 10 -4 10 -10z m30 -116 c0 -2 -7 -4 -15 -4 -8 0
-15 4 -15 10 0 5 7 7 15 4 8 -4 15 -8 15 -10z m-105 -4 c-3 -5 -11 -10 -16
-10 -6 0 -7 5 -4 10 3 6 11 10 16 10 6 0 7 -4 4 -10z m-1038 -62 c-3 -8 -6 -5
-6 6 -1 11 2 17 5 13 3 -3 4 -12 1 -19z m1402 -106 c1 -35 6 -73 10 -85 10
-27 -3 -67 -22 -67 -22 0 -40 45 -34 87 3 29 -2 49 -20 82 -21 35 -23 45 -12
52 8 4 23 14 34 22 17 13 20 13 30 -7 6 -11 12 -49 14 -84z m-375 29 c19 -7
19 -8 -2 -13 -12 -4 -20 -2 -17 2 3 5 -3 11 -12 13 -12 3 -13 5 -3 5 8 0 24
-3 34 -7z m496 -6 c0 -2 -10 -10 -22 -16 -21 -11 -22 -11 -9 4 13 16 31 23 31
12z m-1486 -77 c-10 -15 9 -8 21 9 8 11 14 13 19 5 4 -7 2 -12 -4 -12 -6 0 -9
-4 -5 -10 3 -5 13 -6 23 -3 16 6 16 5 0 -13 -22 -25 -60 -30 -51 -7 4 9 2 14
-3 10 -6 -3 -15 7 -21 23 -10 27 -9 28 7 17 10 -6 16 -15 14 -19z m966 12 c0
-5 -4 -10 -10 -10 -5 0 -10 5 -10 10 0 6 5 10 10 10 6 0 10 -4 10 -10z m127
-6 c-3 -3 -12 -4 -19 -1 -8 3 -5 6 6 6 11 1 17 -2 13 -5z m-117 -54 c0 -5 -5
-10 -11 -10 -5 0 -7 5 -4 10 3 6 8 10 11 10 2 0 4 -4 4 -10z m70 -1 c0 -10
-30 -20 -41 -13 -5 3 -7 9 -4 14 6 10 45 9 45 -1z m362 -21 c-7 -7 -12 -8 -12
-2 0 14 12 26 19 19 2 -3 -1 -11 -7 -17z m-829 -29 c11 -7 32 -23 46 -37 29
-27 12 -21 -34 13 -17 13 -39 25 -50 28 -18 4 -18 5 -2 6 10 0 28 -4 40 -10z
m427 7 c0 -3 -4 -8 -10 -11 -5 -3 -10 -1 -10 4 0 6 5 11 10 11 6 0 10 -2 10
-4z m844 -22 c3 -8 2 -12 -4 -9 -6 3 -10 10 -10 16 0 14 7 11 14 -7z m86 -54
c-20 -13 -33 -13 -25 0 3 6 14 10 23 10 15 0 15 -2 2 -10z m-16 -196 c3 -8 2
-14 -2 -14 -10 0 -32 22 -32 32 0 12 28 -2 34 -18z m-424 -148 c0 -3 -4 -8
-10 -11 -5 -3 -10 -1 -10 4 0 6 5 11 10 11 6 0 10 -2 10 -4z m1080 -16 c-8 -5
-25 -10 -37 -10 -12 0 -25 -5 -29 -11 -3 -6 -17 -9 -30 -6 -13 2 -25 0 -27 -6
-2 -6 -19 -11 -38 -11 -18 -1 -38 -4 -44 -8 -5 -3 -19 -2 -30 2 -17 6 -16 8
10 15 26 6 201 40 230 43 6 1 3 -3 -5 -8z m-420 -15 c0 -2 -15 -12 -32 -21
l-33 -17 19 22 c17 19 46 29 46 16z m480 -59 c0 -3 -4 -8 -10 -11 -5 -3 -10
-1 -10 4 0 6 5 11 10 11 6 0 10 -2 10 -4z m-60 -56 c0 -5 -4 -10 -10 -10 -5 0
-10 5 -10 10 0 6 5 10 10 10 6 0 10 -4 10 -10z m-109 -41 c-12 -10 -27 -16
-32 -13 -5 3 -9 -1 -9 -8 0 -9 -3 -9 -10 2 -5 8 -10 10 -10 4 0 -7 -17 -15
-37 -19 -21 -4 -42 -10 -48 -13 -19 -12 -41 -14 -152 -15 -80 -1 -116 2 -125
12 -11 10 5 11 87 6 70 -5 114 -3 145 6 25 7 54 14 65 16 11 2 32 12 48 23 18
14 27 16 27 8 0 -9 3 -8 10 2 9 13 10 13 10 0 0 -13 1 -13 10 0 9 13 10 13 10
0 1 -11 3 -11 11 3 6 10 14 16 17 12 4 -4 -4 -15 -17 -26z m-451 -49 c0 -5 -2
-10 -4 -10 -3 0 -8 5 -11 10 -3 6 -1 10 4 10 6 0 11 -4 11 -10z m530 -70 c0
-5 -5 -10 -11 -10 -5 0 -7 5 -4 10 3 6 8 10 11 10 2 0 4 -4 4 -10z m-580 -62
c0 -11 -7 -10 -31 2 -28 16 -23 32 6 18 14 -6 25 -15 25 -20z m196 -50 c8 -9
-16 -10 -121 -8 -109 2 -96 15 15 15 54 0 102 -3 106 -7z m-2216 -82 c0 -12
-5 -7 -19 24 -11 24 -11 24 3 6 9 -11 16 -24 16 -30z m2012 25 c2 -6 26 -12
53 -14 28 -3 79 -12 115 -20 38 -9 98 -14 143 -12 42 1 77 -1 77 -6 0 -16
-186 -15 -265 1 -27 6 -71 14 -97 20 -27 5 -55 7 -63 4 -8 -4 -15 -1 -15 6 0
6 4 9 9 6 5 -3 11 1 15 9 6 17 23 20 28 6z m-2042 -20 c5 -11 10 -28 10 -38 0
-13 -5 -10 -20 12 -11 17 -20 33 -20 38 0 14 20 7 30 -12z m696 -56 c-4 -25
-11 -45 -15 -45 -4 0 -20 13 -35 29 l-28 29 38 20 c22 11 41 19 43 17 2 -2 0
-25 -3 -50z m1789 35 c-3 -5 -15 -10 -26 -10 -11 0 -17 5 -14 10 3 6 15 10 26
10 11 0 17 -4 14 -10z m-3095 -34 c0 -3 -4 -8 -10 -11 -5 -3 -10 -1 -10 4 0 6
5 11 10 11 6 0 10 -2 10 -4z m425 -27 c22 -42 15 -44 -12 -3 -12 19 -18 34
-13 34 5 0 17 -14 25 -31z m2107 2 c13 -5 97 -38 187 -72 89 -35 158 -65 153
-67 -10 -3 -95 23 -152 46 -14 5 -43 15 -65 20 -81 21 -170 46 -174 49 -4 3
19 33 25 33 2 0 13 -4 26 -9z m-2048 -27 c3 -8 2 -12 -4 -9 -6 3 -10 10 -10
16 0 14 7 11 14 -7z m36 -9 c14 -19 14 -19 -2 -6 -10 7 -18 18 -18 24 0 6 1 8
3 6 1 -2 9 -13 17 -24z m1827 -84 c13 -26 26 -63 30 -82 6 -31 39 -98 54 -109
11 -9 49 -89 49 -105 0 -8 4 -15 9 -15 5 0 11 -13 13 -30 3 -16 1 -30 -4 -30
-5 0 -4 -9 2 -21 7 -11 9 -26 7 -33 -3 -6 1 -20 9 -31 16 -22 19 -39 5 -30 -9
5 -17 18 -56 95 -10 19 -28 49 -40 65 -12 17 -30 48 -40 70 -10 22 -24 45 -30
52 -18 18 -42 100 -49 171 -11 95 6 109 41 33z m216 23 c9 -4 17 -10 17 -15 0
-5 9 -9 20 -9 11 0 20 -4 20 -9 0 -10 30 -24 37 -17 2 2 -3 11 -12 20 -15 15
-15 16 0 16 9 0 24 -7 32 -16 14 -13 14 -17 2 -25 -8 -5 -10 -9 -5 -9 5 0 18
7 28 17 10 9 18 11 18 5 0 -6 -4 -13 -10 -17 -14 -9 11 -57 27 -51 7 3 12 2
10 -2 -1 -4 2 -8 7 -9 10 -1 26 -24 26 -35 0 -5 -11 -8 -24 -8 -25 0 -76 41
-76 62 0 8 -3 9 -8 3 -4 -5 -13 -11 -21 -13 -12 -3 -12 0 -1 12 7 9 8 16 2 16
-5 0 -15 -7 -23 -16 -17 -21 3 -79 41 -115 19 -18 25 -31 19 -40 -13 -20 -11
-29 6 -29 8 0 15 -7 15 -15 0 -26 -29 -16 -70 25 -22 22 -46 40 -52 40 -10 0
-9 -3 1 -9 10 -7 11 -13 2 -30 -8 -13 -8 -27 -3 -38 11 -21 0 -63 -11 -46 -4
7 -3 15 3 18 6 4 1 14 -14 26 -14 11 -28 28 -31 39 -3 11 -15 30 -25 42 -52
62 -93 124 -106 161 -8 22 -19 46 -25 53 -6 7 -9 19 -7 25 5 15 109 -69 125
-102 61 -127 68 -137 75 -102 2 9 -10 44 -26 78 -16 33 -30 65 -31 70 -1 6 -6
23 -13 38 -7 16 -12 30 -12 32 0 3 27 -5 73 -21z m-2033 -47 c0 -5 -11 5 -25
21 -14 17 -25 34 -25 38 0 11 49 -48 50 -59z m2598 38 c-3 -3 -9 2 -12 12 -6
14 -5 15 5 6 7 -7 10 -15 7 -18z m-188 -45 l25 -8 -25 -1 c-14 0 -32 4 -40 9
-13 9 -13 10 0 9 8 -1 26 -5 40 -9z m87 -16 c-3 -3 -12 -4 -19 -1 -8 3 -5 6 6
6 11 1 17 -2 13 -5z m-747 -86 c0 -5 16 -34 35 -64 19 -30 35 -58 35 -63 0 -5
4 -11 8 -13 9 -4 75 -138 70 -143 -5 -5 -35 19 -37 30 -5 23 -34 75 -42 75 -4
0 -6 -25 -3 -55 2 -30 2 -55 0 -55 -3 0 -12 26 -20 58 -16 55 -52 172 -64 202
-3 8 -7 29 -8 45 -3 28 -3 29 11 11 8 -11 15 -24 15 -28z m-1701 17 c182 -12
322 -43 346 -78 13 -18 14 -18 17 9 2 16 8 28 13 28 6 -1 27 -5 48 -8 36 -7
38 -6 35 16 -3 20 1 23 27 20 17 -1 38 -2 48 -3 9 0 17 -6 17 -13 0 -10 12
-12 45 -8 27 3 45 1 45 -6 0 -5 11 -13 25 -16 17 -4 25 -12 23 -24 -3 -17 3
-18 67 -8 11 2 37 -2 58 -8 36 -10 40 -16 62 -77 12 -36 27 -74 32 -85 6 -10
21 -39 33 -63 19 -36 20 -43 7 -38 -10 4 -21 -1 -27 -11 -11 -16 -11 -16 -6 1
3 9 1 17 -4 17 -6 0 -10 -8 -11 -17 0 -10 -6 0 -13 22 -6 22 -15 39 -19 38
-26 -9 -56 -1 -62 17 -3 11 -10 20 -15 20 -5 0 -7 -8 -3 -17 5 -15 3 -15 -9 1
-15 19 -16 19 -22 -2 -8 -25 -26 -30 -26 -8 0 8 -5 18 -10 21 -6 4 -9 1 -8 -6
2 -7 -6 -14 -17 -16 -17 -3 -18 -2 -5 7 12 9 9 11 -15 7 -27 -5 -28 -4 -10 9
18 14 18 14 -3 14 -13 0 -25 7 -29 16 -3 8 -12 13 -20 10 -8 -4 -17 3 -22 16
-8 21 -8 21 -15 -5 -3 -15 -4 -38 0 -52 10 -38 -24 -32 -41 8 -9 19 -14 25
-15 14 0 -24 -20 -11 -20 13 0 10 -5 22 -12 26 -11 7 -9 -10 8 -50 5 -13 4
-17 -4 -13 -7 5 -12 -11 -16 -45 -3 -29 -9 -87 -13 -128 l-8 -75 -66 -3 -66
-3 -7 40 c-3 22 -4 45 -2 53 3 7 7 37 11 67 6 51 5 53 -11 40 -16 -12 -17 -12
-10 1 4 8 -3 3 -16 -12 -13 -16 -28 -28 -33 -28 -6 0 -17 -21 -25 -47 -10 -31
-22 -49 -34 -51 -14 -3 -17 0 -13 12 9 23 -8 20 -58 -10 -30 -17 -51 -23 -66
-19 -14 5 -19 4 -15 -4 4 -6 1 -9 -7 -5 -8 3 -43 -4 -78 -15 -35 -12 -88 -22
-116 -24 -34 -1 -53 -6 -53 -14 0 -16 -56 -17 -65 -2 -4 5 -18 14 -31 19 -51
20 -14 53 96 87 40 12 49 18 32 21 -12 2 -20 8 -17 13 4 5 -3 9 -15 9 -12 0
-18 -4 -15 -10 4 -7 -2 -9 -19 -4 -16 4 -26 2 -26 -5 0 -17 -83 -1 -94 18 -8
13 -10 13 -17 -4 -7 -17 -8 -17 -8 6 -1 27 38 78 61 80 7 1 -5 7 -27 14 -38
11 -40 14 -38 51 3 48 25 66 102 82 31 7 66 18 77 26 13 10 -7 7 -63 -8 -46
-13 -83 -22 -83 -19 0 2 -7 -3 -16 -11 -40 -40 -46 -2 -9 60 26 44 72 84 98
84 8 0 20 7 27 15 7 8 29 15 49 16 20 0 54 7 76 14 22 7 53 11 69 8 16 -3 45
-6 65 -8z m1531 -28 c-25 -20 -49 -63 -61 -111 -11 -44 -10 -49 16 -86 15 -22
29 -39 31 -37 2 1 0 18 -4 37 -9 45 0 130 12 112 5 -9 17 -11 33 -7 19 4 26 1
30 -14 3 -11 16 -27 30 -36 l25 -17 -7 34 c-4 18 -13 43 -21 56 -22 34 0 26
34 -12 28 -32 44 -73 72 -188 7 -25 23 -57 36 -69 24 -23 32 -49 14 -49 -13 0
-60 75 -60 95 0 13 -7 16 -37 15 -5 0 -7 -14 -5 -30 3 -40 -14 -38 -23 3 -6
28 -8 30 -15 12 -7 -15 -9 -16 -9 -4 -1 9 -7 22 -14 28 -11 9 -13 3 -7 -32 4
-23 13 -55 19 -71 6 -16 9 -31 7 -34 -3 -3 -8 3 -12 12 -4 10 -17 16 -35 16
-16 0 -28 4 -26 8 2 7 -47 72 -81 108 -7 8 -10 14 -6 14 13 0 -17 28 -35 33
-15 4 -17 -1 -15 -26 2 -17 11 -38 19 -47 8 -9 15 -22 15 -28 0 -7 5 -12 10
-12 6 0 10 -8 10 -18 0 -10 5 -23 11 -29 9 -9 7 -11 -7 -8 -11 2 -22 4 -26 4
-5 1 -7 4 -7 9 4 25 -4 30 -40 26 l-38 -5 2 46 c2 47 -3 53 -23 33 -20 -20
-26 0 -14 54 14 60 10 72 -12 31 -21 -42 -26 -143 -5 -143 5 0 8 4 4 9 -3 5
-1 12 4 16 6 3 15 -4 21 -15 8 -15 8 -20 -1 -20 -7 0 -8 -4 -2 -12 5 -7 15
-32 23 -55 8 -26 19 -43 29 -44 11 0 10 -3 -5 -11 -18 -8 -26 -6 -43 11 -12
12 -18 21 -14 21 4 0 -2 7 -13 15 -17 13 -17 14 -1 15 9 0 17 5 17 11 0 5 -4
7 -10 4 -5 -3 -10 -1 -10 4 0 6 -7 11 -16 11 -12 0 -14 7 -9 33 4 21 3 27 -3
18 -6 -8 -12 -9 -16 -3 -15 24 -106 -5 -106 -34 0 -18 -42 -36 -51 -22 -3 5
-9 3 -12 -6 -4 -9 -12 -16 -19 -16 -10 0 -10 2 1 9 10 6 5 11 -18 16 -18 4
-35 14 -38 22 -5 12 -7 12 -14 1 -6 -9 -9 -7 -9 10 0 12 -4 22 -9 22 -5 0 -12
18 -16 39 -5 29 -11 38 -21 34 -8 -3 -14 0 -14 6 0 6 5 11 10 11 6 0 10 4 10
10 0 5 -6 7 -14 4 -26 -10 -26 13 0 26 20 11 24 19 19 38 -4 15 -2 21 4 17 7
-4 9 6 6 27 -4 26 -3 29 4 13 5 -11 10 -15 10 -9 1 12 57 12 84 0 9 -5 17 -14
17 -21 0 -8 5 -17 10 -20 18 -11 10 15 -11 36 -11 11 -18 24 -14 27 8 8 225 9
225 1 0 -3 -4 -9 -9 -15 -13 -14 -31 -74 -22 -74 7 0 32 43 36 60 0 3 9 18 19
33 23 34 59 53 105 55 18 2 43 9 54 17 12 8 31 15 42 15 17 -1 18 -2 5 -13z
m-1996 -13 c3 -8 2 -12 -4 -9 -6 3 -10 10 -10 16 0 14 7 11 14 -7z m2491 -114
c3 -5 1 -10 -4 -10 -6 0 -11 5 -11 10 0 6 2 10 4 10 3 0 8 -4 11 -10z m5 -90
c0 -5 -4 -10 -10 -10 -5 0 -10 5 -10 10 0 6 5 10 10 10 6 0 10 -4 10 -10z
m-1490 -60 c0 -3 -9 -6 -20 -7 -23 -2 -26 7 -8 25 9 9 14 9 20 -1 4 -6 8 -14
8 -17z m1830 -20 c0 -5 -2 -10 -4 -10 -3 0 -8 5 -11 10 -3 6 -1 10 4 10 6 0
11 -4 11 -10z m-1590 -4 c0 -2 -7 -7 -16 -10 -8 -3 -12 -2 -9 4 6 10 25 14 25
6z m1007 -38 c-3 -8 -6 -5 -6 6 -1 11 2 17 5 13 3 -3 4 -12 1 -19z m607 -16
c9 -21 18 -45 20 -55 1 -9 5 -20 9 -23 4 -4 7 -11 7 -16 0 -5 -7 -2 -16 6 -8
9 -13 20 -9 26 3 5 0 7 -8 4 -8 -3 -17 2 -21 11 -3 9 -2 13 4 10 6 -3 10 -2
10 4 0 5 -4 12 -9 15 -11 7 -21 56 -11 56 4 0 15 -17 24 -38z m-1429 -2 c-3
-5 -11 -10 -16 -10 -6 0 -7 5 -4 10 3 6 11 10 16 10 6 0 7 -4 4 -10z m432 -20
c1 -11 -2 -20 -8 -20 -5 0 -9 2 -9 4 0 2 -3 11 -6 20 -4 10 -1 16 8 16 7 0 14
-9 15 -20z m-339 -25 c-3 -3 -9 2 -12 12 -6 14 -5 15 5 6 7 -7 10 -15 7 -18z
m857 15 c3 -5 1 -10 -4 -10 -6 0 -11 5 -11 10 0 6 2 10 4 10 3 0 8 -4 11 -10z
m-918 -16 c-3 -3 -12 -4 -19 -1 -8 3 -5 6 6 6 11 1 17 -2 13 -5z m-2060 -166
c-3 -8 -6 -5 -6 6 -1 11 2 17 5 13 3 -3 4 -12 1 -19z m-10 -90 c-3 -8 -6 -5
-6 6 -1 11 2 17 5 13 3 -3 4 -12 1 -19z m-110 -84 c-3 -3 -12 -4 -19 -1 -8 3
-5 6 6 6 11 1 17 -2 13 -5z m921 -24 c5 0 17 -18 26 -40 19 -49 20 -56 3 -41
-8 6 -17 8 -20 4 -4 -3 -7 1 -7 10 0 10 4 17 10 17 5 0 7 7 4 15 -4 8 -10 13
-15 10 -4 -3 -15 9 -24 27 -11 24 -12 28 -2 16 8 -10 19 -18 25 -18z m-84 -26
c3 -8 2 -12 -4 -9 -6 3 -10 10 -10 16 0 14 7 11 14 -7z m217 -11 c13 -16 12
-17 -3 -4 -17 13 -22 21 -14 21 2 0 10 -8 17 -17z m-53 -34 c-3 -8 -7 -3 -11
10 -4 17 -3 21 5 13 5 -5 8 -16 6 -23z m136 -35 c3 -8 2 -12 -4 -9 -6 3 -10
10 -10 16 0 14 7 11 14 -7z m620 -7 c-7 -19 -35 -31 -31 -14 2 12 30 38 35 33
1 -2 0 -10 -4 -19z m-794 -23 c0 -8 -4 -12 -10 -9 -5 3 -10 10 -10 16 0 5 5 9
10 9 6 0 10 -7 10 -16z m130 -4 c6 -11 8 -20 6 -20 -3 0 -10 9 -16 20 -6 11
-8 20 -6 20 3 0 10 -9 16 -20z m-543 -42 c-3 -7 -5 -2 -5 12 0 14 2 19 5 13 2
-7 2 -19 0 -25z m143 10 c0 -19 -2 -20 -10 -8 -13 19 -13 30 0 30 6 0 10 -10
10 -22z m310 3 c0 -21 -26 -36 -35 -21 -4 6 -1 10 4 10 6 0 11 7 11 15 0 8 5
15 10 15 6 0 10 -9 10 -19z m84 -21 c-6 -5 -24 21 -24 34 0 6 6 1 14 -10 8
-10 12 -21 10 -24z m651 30 c-3 -5 -11 -10 -16 -10 -6 0 -7 5 -4 10 3 6 11 10
16 10 6 0 7 -4 4 -10z m-1455 -20 c0 -11 -4 -20 -9 -20 -5 0 -7 9 -4 20 3 11
7 20 9 20 2 0 4 -9 4 -20z m834 -20 c-6 -6 -10 -3 -10 10 0 13 4 16 10 10 7
-7 7 -13 0 -20z m406 1 c0 -4 -20 -28 -44 -53 -31 -31 -57 -48 -82 -52 -20 -4
-38 -5 -41 -2 -16 16 68 93 127 117 16 7 40 1 40 -10z m1850 -20 c-11 -21 -30
-37 -30 -25 0 8 30 44 37 44 2 0 -1 -9 -7 -19z m-2380 -17 c0 -8 5 -14 11 -14
6 0 9 7 6 15 -4 8 -2 17 2 20 5 3 12 -2 15 -11 9 -24 7 -64 -4 -64 -5 0 -7 -7
-4 -15 4 -8 2 -15 -4 -15 -16 0 -33 26 -27 42 3 8 1 27 -5 42 -6 17 -6 25 0
21 6 -3 10 -13 10 -21z m1749 -27 c-2 -3 -15 10 -28 27 l-24 31 28 -27 c16
-15 27 -29 24 -31z m-1669 33 c0 -5 -5 -10 -11 -10 -5 0 -7 5 -4 10 3 6 8 10
11 10 2 0 4 -4 4 -10z m58 -26 c-4 -3 -12 5 -18 18 -12 22 -12 22 6 6 10 -10
15 -20 12 -24z m1160 -10 c-4 -3 -12 5 -18 18 -12 22 -12 22 6 6 10 -10 15
-20 12 -24z m-65 -9 c10 -14 14 -25 9 -25 -6 0 -17 11 -26 25 -21 32 -7 32 17
0z m488 3 c11 -21 11 -22 -4 -9 -10 7 -17 17 -17 22 0 15 9 10 21 -13z m-2114
-20 c-3 -7 -5 -2 -5 12 0 14 2 19 5 13 2 -7 2 -19 0 -25z m462 -33 c0 -5 -6
-1 -14 9 -8 10 -11 24 -8 29 6 10 21 -16 22 -38z m41 15 c0 -5 -2 -10 -4 -10
-3 0 -8 5 -11 10 -3 6 -1 10 4 10 6 0 11 -4 11 -10z m1704 -26 c3 -8 2 -12 -4
-9 -6 3 -10 10 -10 16 0 14 7 11 14 -7z m-1681 -11 c2 -10 8 -27 12 -38 6 -16
3 -15 -14 5 -21 26 -27 50 -12 50 5 0 11 -8 14 -17z m44 -5 c-3 -8 -6 -5 -6 6
-1 11 2 17 5 13 3 -3 4 -12 1 -19z m838 12 c3 -5 1 -10 -4 -10 -6 0 -11 5 -11
10 0 6 2 10 4 10 3 0 8 -4 11 -10z m-1062 -14 c4 -10 1 -13 -8 -9 -8 3 -12 9
-9 14 7 12 11 11 17 -5z m80 -6 c-7 -26 -23 -26 -23 0 0 11 6 20 14 20 9 0 12
-7 9 -20z m58 -2 l12 -23 -24 20 c-13 11 -26 21 -28 22 -2 2 3 3 12 3 9 0 22
-10 28 -22z m1219 -25 c6 -7 6 -14 1 -18 -5 -3 -17 9 -25 26 -20 40 -20 51 -1
24 8 -11 19 -25 25 -32z m574 21 c3 -9 1 -12 -5 -9 -5 4 -16 2 -23 -4 -10 -9
-15 -8 -20 5 -5 12 -2 15 10 10 11 -4 15 -2 11 8 -4 10 -1 13 8 10 7 -3 16
-12 19 -20z m-846 -19 c-3 -3 -9 2 -12 12 -6 14 -5 15 5 6 7 -7 10 -15 7 -18z
m842 -26 c0 -5 -4 -9 -10 -9 -5 0 -10 7 -10 16 0 8 5 12 10 9 6 -3 10 -10 10
-16z"/>
<path d="M3655 2540 c-3 -5 1 -10 9 -10 9 0 16 5 16 10 0 6 -4 10 -9 10 -6 0
-13 -4 -16 -10z"/>
<path d="M4055 2210 c-3 -6 1 -7 9 -4 18 7 21 14 7 14 -6 0 -13 -4 -16 -10z"/>
<path d="M2638 2683 c7 -3 16 -2 19 1 4 3 -2 6 -13 5 -11 0 -14 -3 -6 -6z"/>
<path d="M2961 2524 c0 -11 3 -14 6 -6 3 7 2 16 -1 19 -3 4 -6 -2 -5 -13z"/>
<path d="M1975 1170 c-3 -5 1 -22 9 -37 l15 -28 -1 33 c-1 34 -12 50 -23 32z"/>
<path d="M2218 983 c7 -3 16 -2 19 1 4 3 -2 6 -13 5 -11 0 -14 -3 -6 -6z"/>
<path d="M2293 963 c9 -2 23 -2 30 0 6 3 -1 5 -18 5 -16 0 -22 -2 -12 -5z"/>
<path d="M1705 910 c3 -5 8 -10 11 -10 2 0 4 5 4 10 0 6 -5 10 -11 10 -5 0 -7
-4 -4 -10z"/>
<path d="M2401 904 c0 -11 3 -14 6 -6 3 7 2 16 -1 19 -3 4 -6 -2 -5 -13z"/>
<path d="M1832 760 c0 -14 2 -19 5 -12 2 6 2 18 0 25 -3 6 -5 1 -5 -13z"/>
<path d="M2897 1041 c-3 -12 -1 -21 3 -21 15 0 23 21 12 32 -6 6 -11 2 -15
-11z"/>
<path d="M2557 1003 c-4 -3 -7 -11 -7 -17 0 -6 5 -5 12 2 6 6 9 14 7 17 -3 3
-9 2 -12 -2z"/>
<path d="M2572 960 c0 -14 2 -19 5 -12 2 6 2 18 0 25 -3 6 -5 1 -5 -13z"/>
<path d="M2570 916 c0 -6 11 -12 24 -12 13 0 22 5 20 11 -6 15 -44 16 -44 1z"/>
<path d="M2604 875 c2 -5 9 -9 15 -7 6 1 10 -1 10 -5 -4 -22 3 -33 19 -33 13
0 14 2 4 9 -7 4 -12 12 -11 17 4 23 -3 33 -21 31 -11 -1 -18 -6 -16 -12z"/>
<path d="M2560 871 c0 -6 4 -13 10 -16 6 -3 7 1 4 9 -7 18 -14 21 -14 7z"/>
<path d="M3565 3720 c-3 -5 -1 -10 4 -10 6 0 11 5 11 10 0 6 -2 10 -4 10 -3 0
-8 -4 -11 -10z"/>
<path d="M3480 3595 c7 -8 16 -15 21 -15 5 0 6 7 3 15 -4 8 -13 15 -21 15 -13
0 -13 -3 -3 -15z"/>
<path d="M1580 3310 c-8 -5 -11 -12 -7 -16 4 -4 13 -2 19 4 15 15 7 24 -12 12z"/>
<path d="M1610 3270 c0 -5 7 -10 16 -10 8 0 12 5 9 10 -3 6 -10 10 -16 10 -5
0 -9 -4 -9 -10z"/>
<path d="M1665 3060 c-3 -5 -1 -10 4 -10 6 0 11 5 11 10 0 6 -2 10 -4 10 -3 0
-8 -4 -11 -10z"/>
<path d="M1380 2894 c0 -9 -9 -18 -20 -21 -28 -7 -25 -20 5 -20 21 0 25 4 25
28 0 16 -2 29 -5 29 -3 0 -5 -7 -5 -16z"/>
</g>
</svg>
