<svg version="1.1" id="Layer_1" xmlns="http://www.w3.org/2000/svg" xmlns:xlink="http://www.w3.org/1999/xlink" x="0px" y="0px"
	 width="100%" viewBox="0 0 1920 1080" enable-background="new 0 0 1920 1080" xml:space="preserve">
<path fill="#FFFFFF" opacity="1.000000" stroke="none" 
	d="
M989.000000,1.000002 
	C1299.645630,1.000000 1610.291382,1.000000 1920.968506,1.000000 
	C1920.968506,360.954712 1920.968506,720.909424 1920.968506,1080.932129 
	C1281.088501,1080.932129 641.177002,1080.932129 1.132768,1080.932129 
	C1.132768,721.112854 1.132768,361.225677 1.132768,1.000000 
	C311.365997,1.000000 621.732117,1.000000 932.299805,1.336980 
	C896.345764,3.783330 860.576416,8.618775 825.554749,17.971437 
	C736.690430,41.702984 658.280823,84.444138 591.207947,147.624176 
	C535.882935,199.738129 493.171509,260.703430 463.545471,330.679779 
	C440.725555,384.580109 427.117981,440.752472 422.709839,499.220886 
	C418.951965,549.064636 421.753082,598.463013 431.484650,647.402649 
	C442.769440,704.153076 463.026733,757.641418 491.701569,807.933716 
	C529.114563,873.551819 578.229126,928.865784 638.567932,974.160706 
	C692.150085,1014.383606 751.490173,1043.145630 816.055420,1060.857544 
	C835.113403,1066.085693 854.650940,1069.569946 873.981750,1073.793823 
	C876.081787,1074.252563 878.664612,1074.859985 877.877563,1070.543457 
	C877.904541,920.169556 877.904541,770.268616 877.904541,619.854736 
	C848.553223,619.854736 819.995117,619.854736 791.520264,619.854736 
	C791.520264,568.753845 791.520264,518.167908 791.520264,467.093262 
	C820.394104,467.093262 848.963928,467.093262 877.910645,467.093262 
	C877.910645,457.476959 878.050354,448.343140 877.885803,439.214813 
	C877.254150,404.174103 882.441772,369.957550 890.963806,336.013062 
	C903.023438,287.977783 927.037964,247.800262 965.384033,216.110306 
	C1012.898987,176.843124 1067.490479,157.379959 1128.852539,155.951965 
	C1158.089844,155.271545 1187.124756,157.371521 1215.943359,162.178741 
	C1227.705322,164.140747 1239.335693,166.890945 1251.253052,169.329010 
	C1248.752075,223.639267 1246.294922,276.995941 1243.824829,330.635956 
	C1242.677612,330.328217 1241.870972,330.170715 1241.105347,329.897888 
	C1214.925781,320.568451 1188.049194,317.574585 1160.470337,321.055786 
	C1143.565796,323.189636 1128.185913,328.941742 1115.485474,340.661255 
	C1097.339722,357.405548 1087.036621,378.628632 1084.316040,402.672516 
	C1082.040649,422.781158 1082.740967,443.227051 1082.151855,463.524414 
	C1082.119629,464.634918 1082.347412,465.752960 1082.493896,467.283875 
	C1126.316528,467.283875 1169.903931,467.283875 1213.943726,467.283875 
	C1213.943726,518.185425 1213.943726,568.644531 1213.811279,619.249268 
	C1213.517334,619.608215 1213.409058,619.845703 1212.863525,620.133423 
	C1169.110596,620.159363 1125.847778,620.159363 1082.133667,620.159363 
	C1082.133667,622.674133 1082.133667,624.632874 1082.133667,626.591553 
	C1082.133545,770.539368 1082.133057,914.487122 1082.137817,1058.434937 
	C1082.137817,1060.266113 1082.203125,1062.097168 1082.147217,1064.302490 
	C1083.245361,1069.233276 1086.322021,1066.003906 1087.911011,1065.614746 
	C1152.399414,1049.828613 1212.331177,1023.719788 1267.022949,985.901917 
	C1330.563354,941.965271 1382.648926,887.035400 1422.628174,821.022461 
	C1466.974976,747.797913 1492.805420,668.422668 1499.235962,582.815979 
	C1503.170044,530.440735 1500.054932,478.597961 1488.933960,427.317139 
	C1469.873169,339.424438 1431.373657,260.967834 1373.180786,192.349197 
	C1315.668335,124.533073 1245.738525,73.729149 1163.283936,40.259361 
	C1111.845703,19.379694 1058.543335,6.540663 1003.098206,2.790167 
	C998.380005,2.471014 993.698547,1.609538 989.000000,1.000002 
z"/>
<path fill="#5879BB" opacity="1.000000" stroke="none" 
	d="
M877.850586,1071.016602 
	C878.664612,1074.859985 876.081787,1074.252563 873.981750,1073.793823 
	C854.650940,1069.569946 835.113403,1066.085693 816.055420,1060.857544 
	C751.490173,1043.145630 692.150085,1014.383606 638.567932,974.160706 
	C578.229126,928.865784 529.114563,873.551819 491.701569,807.933716 
	C463.026733,757.641418 442.769440,704.153076 431.484650,647.402649 
	C421.753082,598.463013 418.951965,549.064636 422.709839,499.220886 
	C427.117981,440.752472 440.725555,384.580109 463.545471,330.679779 
	C493.171509,260.703430 535.882935,199.738129 591.207947,147.624176 
	C658.280823,84.444138 736.690430,41.702984 825.554749,17.971437 
	C860.576416,8.618775 896.345764,3.783330 932.750671,1.336980 
	C951.354248,1.000000 969.708435,1.000000 988.531372,1.000002 
	C993.698547,1.609538 998.380005,2.471014 1003.098206,2.790167 
	C1058.543335,6.540663 1111.845703,19.379694 1163.283936,40.259361 
	C1245.738525,73.729149 1315.668335,124.533073 1373.180786,192.349197 
	C1431.373657,260.967834 1469.873169,339.424438 1488.933960,427.317139 
	C1500.054932,478.597961 1503.170044,530.440735 1499.235962,582.815979 
	C1492.805420,668.422668 1466.974976,747.797913 1422.628174,821.022461 
	C1382.648926,887.035400 1330.563354,941.965271 1267.022949,985.901917 
	C1212.331177,1023.719788 1152.399414,1049.828613 1087.911011,1065.614746 
	C1086.322021,1066.003906 1083.245361,1069.233276 1082.543701,1064.330566 
	C1083.694702,1063.964355 1084.386230,1064.059326 1085.018555,1063.907837 
	C1124.315918,1054.493652 1162.182007,1040.976929 1198.438599,1023.198730 
	C1239.888184,1002.874207 1278.010864,977.484192 1312.872314,947.103760 
	C1342.255493,921.497253 1368.628906,893.150024 1391.975342,862.038208 
	C1415.529297,830.649902 1435.047485,796.851074 1451.280762,761.061768 
	C1479.168701,699.577332 1494.391479,635.065247 1497.837646,567.825989 
	C1499.645508,532.551758 1498.132690,497.256073 1492.850220,462.267181 
	C1487.152344,424.526764 1477.696777,387.725006 1464.250366,351.951050 
	C1449.540527,312.815887 1430.725586,275.771606 1407.364014,241.149307 
	C1385.518433,208.773758 1360.448242,179.046799 1332.014648,152.149292 
	C1309.823486,131.157059 1286.300537,111.861969 1260.948242,94.877098 
	C1200.766968,54.558403 1135.210083,26.818520 1063.951660,13.593047 
	C1038.536743,8.876069 1012.644287,5.782246 986.838501,4.401736 
	C963.153198,3.134657 939.269897,4.728066 915.512329,5.864333 
	C886.383423,7.257490 857.762146,12.565260 829.534668,19.672050 
	C778.205750,32.595058 729.780457,52.727253 684.410950,79.995056 
	C642.663086,105.086151 605.103271,135.428024 571.432983,170.676697 
	C550.321167,192.778198 531.151367,216.420197 514.195312,241.769882 
	C483.258148,288.021881 460.199402,338.013458 444.610474,391.469421 
	C432.873932,431.715240 426.106842,472.812042 424.192352,514.602234 
	C423.279755,534.523254 423.683868,554.599548 425.021362,574.502686 
	C426.444702,595.684082 428.635132,616.927612 432.318451,637.821777 
	C442.658417,696.476196 463.010742,751.673645 492.124176,803.647217 
	C521.445862,855.992554 558.723755,901.923218 603.293762,942.009827 
	C638.406860,973.590820 677.086792,999.981445 719.302551,1021.089355 
	C761.003723,1041.939941 804.710449,1057.260620 850.347778,1066.878784 
	C859.403809,1068.787476 868.677307,1069.664185 877.850586,1071.016602 
z"/>
<path fill="#062D49" opacity="1.000000" stroke="none" 
	d="
M877.877563,1070.543457 
	C868.677307,1069.664185 859.403809,1068.787476 850.347778,1066.878784 
	C804.710449,1057.260620 761.003723,1041.939941 719.302551,1021.089355 
	C677.086792,999.981445 638.406860,973.590820 603.293762,942.009827 
	C558.723755,901.923218 521.445862,855.992554 492.124176,803.647217 
	C463.010742,751.673645 442.658417,696.476196 432.318451,637.821777 
	C428.635132,616.927612 426.444702,595.684082 425.021362,574.502686 
	C423.683868,554.599548 423.279755,534.523254 424.192352,514.602234 
	C426.106842,472.812042 432.873932,431.715240 444.610474,391.469421 
	C460.199402,338.013458 483.258148,288.021881 514.195312,241.769882 
	C531.151367,216.420197 550.321167,192.778198 571.432983,170.676697 
	C605.103271,135.428024 642.663086,105.086151 684.410950,79.995056 
	C729.780457,52.727253 778.205750,32.595058 829.534668,19.672050 
	C857.762146,12.565260 886.383423,7.257490 915.512329,5.864333 
	C939.269897,4.728066 963.153198,3.134657 986.838501,4.401736 
	C1012.644287,5.782246 1038.536743,8.876069 1063.951660,13.593047 
	C1135.210083,26.818520 1200.766968,54.558403 1260.948242,94.877098 
	C1286.300537,111.861969 1309.823486,131.157059 1332.014648,152.149292 
	C1360.448242,179.046799 1385.518433,208.773758 1407.364014,241.149307 
	C1430.725586,275.771606 1449.540527,312.815887 1464.250366,351.951050 
	C1477.696777,387.725006 1487.152344,424.526764 1492.850220,462.267181 
	C1498.132690,497.256073 1499.645508,532.551758 1497.837646,567.825989 
	C1494.391479,635.065247 1479.168701,699.577332 1451.280762,761.061768 
	C1435.047485,796.851074 1415.529297,830.649902 1391.975342,862.038208 
	C1368.628906,893.150024 1342.255493,921.497253 1312.872314,947.103760 
	C1278.010864,977.484192 1239.888184,1002.874207 1198.438599,1023.198730 
	C1162.182007,1040.976929 1124.315918,1054.493652 1085.018555,1063.907837 
	C1084.386230,1064.059326 1083.694702,1063.964355 1082.634399,1063.956299 
	C1082.203125,1062.097168 1082.137817,1060.266113 1082.137817,1058.434937 
	C1082.133057,914.487122 1082.133545,770.539368 1082.133667,626.591553 
	C1082.133667,624.632874 1082.133667,622.674133 1082.133667,620.159363 
	C1125.847778,620.159363 1169.110596,620.159363 1213.102783,620.082764 
	C1214.119629,619.736267 1214.156860,619.435486 1213.943726,619.103638 
	C1213.943726,568.644531 1213.943726,518.185425 1213.943726,467.283875 
	C1169.903931,467.283875 1126.316528,467.283875 1082.493896,467.283875 
	C1082.347412,465.752960 1082.119629,464.634918 1082.151855,463.524414 
	C1082.740967,443.227051 1082.040649,422.781158 1084.316040,402.672516 
	C1087.036621,378.628632 1097.339722,357.405548 1115.485474,340.661255 
	C1128.185913,328.941742 1143.565796,323.189636 1160.470337,321.055786 
	C1188.049194,317.574585 1214.925781,320.568451 1241.105347,329.897888 
	C1241.870972,330.170715 1242.677612,330.328217 1243.824829,330.635956 
	C1246.294922,276.995941 1248.752075,223.639267 1251.253052,169.329010 
	C1239.335693,166.890945 1227.705322,164.140747 1215.943359,162.178741 
	C1187.124756,157.371521 1158.089844,155.271545 1128.852539,155.951965 
	C1067.490479,157.379959 1012.898987,176.843124 965.384033,216.110306 
	C927.037964,247.800262 903.023438,287.977783 890.963806,336.013062 
	C882.441772,369.957550 877.254150,404.174103 877.885803,439.214813 
	C878.050354,448.343140 877.910645,457.476959 877.910645,467.093262 
	C848.963928,467.093262 820.394104,467.093262 791.520264,467.093262 
	C791.520264,518.167908 791.520264,568.753845 791.520264,619.854736 
	C819.995117,619.854736 848.553223,619.854736 877.904541,619.854736 
	C877.904541,770.268616 877.904541,920.169556 877.877563,1070.543457 
z"/>
<path fill="#5879BB" opacity="1.000000" stroke="none" 
	d="
M1213.811279,619.249268 
	C1214.156860,619.435486 1214.119629,619.736267 1213.593018,620.056763 
	C1213.409058,619.845703 1213.517334,619.608215 1213.811279,619.249268 
z"/>
</svg>