<svg version="1.1" id="Layer_1" xmlns="http://www.w3.org/2000/svg" xmlns:xlink="http://www.w3.org/1999/xlink" x="0px" y="0px"
	 width="100%" viewBox="0 0 1920 1080" enable-background="new 0 0 1920 1080" xml:space="preserve">
<path fill="#FFFFFF" opacity="1.000000" stroke="none" 
	d="
M989.000000,0.999999 
	C1299.645630,1.000000 1610.291382,1.000000 1920.968506,1.000000 
	C1920.968506,360.954712 1920.968506,720.909424 1920.968506,1080.932129 
	C1281.088501,1080.932129 641.177002,1080.932129 1.132768,1080.932129 
	C1.132768,721.112854 1.132768,361.225677 1.132768,1.000000 
	C311.365997,1.000000 621.732117,1.000000 932.307983,1.346128 
	C915.947876,3.295577 899.299683,4.332240 882.822754,6.608831 
	C834.069458,13.345022 787.309509,27.215202 742.358276,47.219929 
	C647.057495,89.631912 570.283508,154.410370 512.229675,240.772308 
	C459.762024,318.824066 429.929138,405.125641 422.772766,499.151672 
	C418.231445,558.819458 422.961670,617.666870 437.982788,675.523193 
	C460.752838,763.225769 502.893555,840.560608 564.411743,907.166992 
	C632.466797,980.850891 714.785217,1031.681763 811.131470,1059.436157 
	C831.546326,1065.317017 852.585205,1069.042114 873.374084,1073.589111 
	C874.759705,1073.892090 878.041443,1076.154297 877.809570,1071.143555 
	C877.887207,1070.290894 877.914429,1069.958374 877.914429,1069.625732 
	C877.922302,921.299683 877.929321,772.973694 877.919312,624.647644 
	C877.919189,623.225464 877.691040,621.803345 877.535706,619.988159 
	C848.636475,619.988159 820.198975,619.988159 791.549744,619.988159 
	C791.549744,568.856567 791.549744,518.164246 791.549744,466.856445 
	C820.509277,466.856445 849.063477,466.856445 877.934753,466.856445 
	C877.934753,461.261658 878.033936,456.278198 877.918762,451.299652 
	C877.149780,418.072449 879.260864,385.118866 886.993530,352.671967 
	C892.049011,331.458832 897.504211,310.364563 906.834961,290.536499 
	C923.015808,256.151733 947.606140,228.973907 977.943787,206.381454 
	C1023.388489,172.538696 1074.671997,156.867126 1130.796875,156.104523 
	C1147.910034,155.872009 1165.165283,156.232452 1182.140137,158.189590 
	C1203.711060,160.676651 1225.054199,165.118088 1246.517090,168.584229 
	C1250.319458,169.198318 1251.269287,171.055008 1251.065552,174.690918 
	C1249.985107,193.965790 1249.038696,213.249069 1248.185059,232.535583 
	C1247.007202,259.146637 1245.980591,285.764343 1244.825073,312.376404 
	C1244.573242,318.177155 1244.051270,323.966156 1243.638550,329.981995 
	C1242.526978,329.883331 1241.544189,329.902679 1240.610840,329.697266 
	C1226.684082,326.633148 1212.896362,322.494781 1198.809692,320.706940 
	C1179.572266,318.265381 1160.132080,318.929260 1141.541260,325.384888 
	C1114.180542,334.885712 1098.537964,355.650848 1089.182617,381.932434 
	C1079.430542,409.328217 1082.390381,437.825287 1082.333008,466.045288 
	C1082.332642,466.296051 1082.731689,466.547607 1083.439087,467.383423 
	C1126.510620,467.383423 1170.077393,467.383423 1213.565918,467.383423 
	C1213.565918,518.551331 1213.565918,569.131836 1213.565918,620.291199 
	C1169.632446,620.291199 1126.066650,620.291199 1082.094238,620.291199 
	C1082.094238,622.841675 1082.094116,624.814148 1082.094116,626.786560 
	C1082.094116,770.612854 1082.093262,914.439087 1082.103394,1058.265381 
	C1082.103638,1060.260498 1082.242676,1062.255737 1082.252930,1064.607178 
	C1083.233765,1068.808960 1085.897461,1066.057373 1087.216797,1065.739136 
	C1142.116333,1052.499023 1193.902222,1031.550171 1242.114136,1002.080627 
	C1289.936646,972.849121 1332.103638,936.904968 1368.872437,894.561157 
	C1407.191650,850.432068 1437.541748,801.396362 1459.927979,747.467407 
	C1481.914307,694.501892 1494.982056,639.410461 1499.272095,582.148621 
	C1504.421875,513.412476 1497.222168,446.080902 1476.636475,380.374878 
	C1451.705811,300.799988 1410.532104,230.579346 1353.116821,169.948456 
	C1300.494751,114.379097 1238.921143,71.804153 1168.329590,42.320881 
	C1115.401611,20.214981 1060.390137,6.670074 1003.077209,2.782486 
	C998.366211,2.462929 993.691528,1.606807 989.000000,0.999999 
z"/>
<path fill="#5374B2" opacity="1.000000" stroke="none" 
	d="
M988.531372,0.999999 
	C993.691528,1.606807 998.366211,2.462929 1003.077209,2.782486 
	C1060.390137,6.670074 1115.401611,20.214981 1168.329590,42.320881 
	C1238.921143,71.804153 1300.494751,114.379097 1353.116821,169.948456 
	C1410.532104,230.579346 1451.705811,300.799988 1476.636475,380.374878 
	C1497.222168,446.080902 1504.421875,513.412476 1499.272095,582.148621 
	C1494.982056,639.410461 1481.914307,694.501892 1459.927979,747.467407 
	C1437.541748,801.396362 1407.191650,850.432068 1368.872437,894.561157 
	C1332.103638,936.904968 1289.936646,972.849121 1242.114136,1002.080627 
	C1193.902222,1031.550171 1142.116333,1052.499023 1087.216797,1065.739136 
	C1085.897461,1066.057373 1083.233765,1068.808960 1082.630737,1064.541260 
	C1120.520630,1055.547241 1156.526733,1042.769897 1191.261597,1026.463989 
	C1236.161865,1005.386353 1277.148193,978.296631 1314.442261,945.569153 
	C1363.021484,902.938538 1402.985352,853.372375 1433.707275,796.548767 
	C1472.551270,724.702087 1494.004883,647.823975 1497.755737,566.221130 
	C1499.734985,523.162109 1496.781860,480.343109 1488.447876,437.965851 
	C1477.245239,381.000244 1457.554688,327.151581 1428.931152,276.644318 
	C1381.466675,192.891403 1315.960327,126.769249 1233.253906,77.689369 
	C1189.319092,51.617443 1142.450562,32.398525 1092.915283,19.961098 
	C1038.752197,6.361717 983.732727,1.398319 927.951477,4.835728 
	C891.785889,7.064351 856.160217,12.529660 821.194641,22.036335 
	C746.712524,42.287056 679.422485,76.684044 619.847229,125.763008 
	C560.943359,174.288925 514.039429,232.563736 480.037720,301.012329 
	C446.484558,368.558044 427.771729,440.066711 424.226532,515.375732 
	C422.120117,560.121460 425.332336,604.618225 434.326202,648.550903 
	C442.902710,690.444946 456.431335,730.746399 474.642303,769.471130 
	C498.580231,820.374023 529.860291,866.280640 568.174011,907.422668 
	C609.182068,951.457764 656.125732,987.839111 709.404846,1015.819275 
	C762.414978,1043.658081 818.479553,1062.553955 877.746521,1071.663574 
	C878.041443,1076.154297 874.759705,1073.892090 873.374084,1073.589111 
	C852.585205,1069.042114 831.546326,1065.317017 811.131470,1059.436157 
	C714.785217,1031.681763 632.466797,980.850891 564.411743,907.166992 
	C502.893555,840.560608 460.752838,763.225769 437.982788,675.523193 
	C422.961670,617.666870 418.231445,558.819458 422.772766,499.151672 
	C429.929138,405.125641 459.762024,318.824066 512.229675,240.772308 
	C570.283508,154.410370 647.057495,89.631912 742.358276,47.219929 
	C787.309509,27.215202 834.069458,13.345022 882.822754,6.608831 
	C899.299683,4.332240 915.947876,3.295577 932.758911,1.346128 
	C951.354248,1.000000 969.708435,1.000000 988.531372,0.999999 
z"/>
<path fill="#EDD35C" opacity="1.000000" stroke="none" 
	d="
M877.809570,1071.143555 
	C818.479553,1062.553955 762.414978,1043.658081 709.404846,1015.819275 
	C656.125732,987.839111 609.182068,951.457764 568.174011,907.422668 
	C529.860291,866.280640 498.580231,820.374023 474.642303,769.471130 
	C456.431335,730.746399 442.902710,690.444946 434.326202,648.550903 
	C425.332336,604.618225 422.120117,560.121460 424.226532,515.375732 
	C427.771729,440.066711 446.484558,368.558044 480.037720,301.012329 
	C514.039429,232.563736 560.943359,174.288925 619.847229,125.763008 
	C679.422485,76.684044 746.712524,42.287056 821.194641,22.036335 
	C856.160217,12.529660 891.785889,7.064351 927.951477,4.835728 
	C983.732727,1.398319 1038.752197,6.361717 1092.915283,19.961098 
	C1142.450562,32.398525 1189.319092,51.617443 1233.253906,77.689369 
	C1315.960327,126.769249 1381.466675,192.891403 1428.931152,276.644318 
	C1457.554688,327.151581 1477.245239,381.000244 1488.447876,437.965851 
	C1496.781860,480.343109 1499.734985,523.162109 1497.755737,566.221130 
	C1494.004883,647.823975 1472.551270,724.702087 1433.707275,796.548767 
	C1402.985352,853.372375 1363.021484,902.938538 1314.442261,945.569153 
	C1277.148193,978.296631 1236.161865,1005.386353 1191.261597,1026.463989 
	C1156.526733,1042.769897 1120.520630,1055.547241 1082.694702,1064.184937 
	C1082.242676,1062.255737 1082.103638,1060.260498 1082.103394,1058.265381 
	C1082.093262,914.439087 1082.094116,770.612854 1082.094116,626.786560 
	C1082.094116,624.814148 1082.094238,622.841675 1082.094238,620.291199 
	C1126.066650,620.291199 1169.632446,620.291199 1213.565918,620.291199 
	C1213.565918,569.131836 1213.565918,518.551331 1213.565918,467.383423 
	C1170.077393,467.383423 1126.510620,467.383423 1083.439087,467.383423 
	C1082.731689,466.547607 1082.332642,466.296051 1082.333008,466.045288 
	C1082.390381,437.825287 1079.430542,409.328217 1089.182617,381.932434 
	C1098.537964,355.650848 1114.180542,334.885712 1141.541260,325.384888 
	C1160.132080,318.929260 1179.572266,318.265381 1198.809692,320.706940 
	C1212.896362,322.494781 1226.684082,326.633148 1240.610840,329.697266 
	C1241.544189,329.902679 1242.526978,329.883331 1243.638550,329.981995 
	C1244.051270,323.966156 1244.573242,318.177155 1244.825073,312.376404 
	C1245.980591,285.764343 1247.007202,259.146637 1248.185059,232.535583 
	C1249.038696,213.249069 1249.985107,193.965790 1251.065552,174.690918 
	C1251.269287,171.055008 1250.319458,169.198318 1246.517090,168.584229 
	C1225.054199,165.118088 1203.711060,160.676651 1182.140137,158.189590 
	C1165.165283,156.232452 1147.910034,155.872009 1130.796875,156.104523 
	C1074.671997,156.867126 1023.388489,172.538696 977.943787,206.381454 
	C947.606140,228.973907 923.015808,256.151733 906.834961,290.536499 
	C897.504211,310.364563 892.049011,331.458832 886.993530,352.671967 
	C879.260864,385.118866 877.149780,418.072449 877.918762,451.299652 
	C878.033936,456.278198 877.934753,461.261658 877.934753,466.856445 
	C849.063477,466.856445 820.509277,466.856445 791.549744,466.856445 
	C791.549744,518.164246 791.549744,568.856567 791.549744,619.988159 
	C820.198975,619.988159 848.636475,619.988159 877.535706,619.988159 
	C877.691040,621.803345 877.919189,623.225464 877.919312,624.647644 
	C877.929321,772.973694 877.922302,921.299683 877.914429,1069.625732 
	C877.914429,1069.958374 877.887207,1070.290894 877.809570,1071.143555 
z"/>
</svg>