<svg version="1.1" id="Layer_1" xmlns="http://www.w3.org/2000/svg" xmlns:xlink="http://www.w3.org/1999/xlink" x="0px" y="0px"
	 width="100%" viewBox="0 0 1920 1080" enable-background="new 0 0 1920 1080" xml:space="preserve">
<path fill="#062D49" opacity="1.000000" stroke="none" 
	d="
M568.000000,0.999999 
	C829.028015,1.000000 1090.056030,1.000000 1351.731323,1.371413 
	C1369.558472,3.370821 1386.020386,7.661832 1401.952026,14.354837 
	C1460.368164,38.895863 1500.982910,99.543037 1500.989380,162.795883 
	C1501.015259,414.916138 1501.023560,667.036438 1500.901489,919.156616 
	C1500.897217,927.938599 1500.339966,936.910950 1498.519897,945.471252 
	C1484.085083,1013.355957 1443.545166,1057.174438 1376.618042,1076.158569 
	C1369.216431,1078.258057 1361.545898,1079.409058 1354.000000,1081.000000 
	C1092.305298,1081.000000 830.610596,1081.000000 568.285522,1080.636475 
	C533.197571,1076.047485 502.430420,1063.249146 476.554504,1039.905273 
	C439.383331,1006.371399 421.075836,964.260742 421.069275,914.253357 
	C421.036621,665.514832 421.036346,416.776337 421.127625,168.037857 
	C421.130798,159.407806 421.758728,150.717209 422.881653,142.157990 
	C431.655884,75.278282 483.829590,16.556517 556.154602,3.660615 
	C560.134644,2.950959 564.052979,1.894847 568.000000,0.999999 
M761.499573,868.509949 
	C908.149475,868.509949 1054.799316,868.496094 1201.449219,868.525879 
	C1221.808228,868.530029 1239.672241,861.809692 1254.864624,848.459045 
	C1274.019409,831.626343 1282.668701,810.102417 1282.656006,784.700623 
	C1282.580444,632.885071 1282.622559,481.069489 1282.600220,329.253937 
	C1282.599609,325.094421 1282.440063,320.926666 1282.151855,316.776794 
	C1279.080688,272.548401 1244.657715,240.490784 1200.278687,240.490448 
	C1046.296631,240.489258 892.314697,240.505615 738.332703,240.457336 
	C727.224060,240.453842 716.534851,242.221664 706.046265,245.913467 
	C677.437561,255.983292 654.248596,287.929016 654.245422,317.893127 
	C654.238098,387.550751 654.341675,457.208405 654.360718,526.866028 
	C654.384399,613.189270 654.320129,699.512512 654.389954,785.835693 
	C654.423584,827.439758 680.882996,860.115295 721.612549,867.277832 
	C734.256104,869.501282 747.519775,868.198425 761.499573,868.509949 
z"/>
<path fill="#FFFFFF" opacity="1.000000" stroke="none" 
	d="
M567.531372,0.999999 
	C564.052979,1.894847 560.134644,2.950959 556.154602,3.660615 
	C483.829590,16.556517 431.655884,75.278282 422.881653,142.157990 
	C421.758728,150.717209 421.130798,159.407806 421.127625,168.037857 
	C421.036346,416.776337 421.036621,665.514832 421.069275,914.253357 
	C421.075836,964.260742 439.383331,1006.371399 476.554504,1039.905273 
	C502.430420,1063.249146 533.197571,1076.047485 567.827637,1080.636475 
	C379.037231,1081.000000 190.074463,1081.000000 1.055848,1081.000000 
	C1.055848,721.108154 1.055848,361.216309 1.055848,1.000000 
	C189.687439,1.000000 378.375061,1.000000 567.531372,0.999999 
z"/>
<path fill="#FFFFFF" opacity="1.000000" stroke="none" 
	d="
M1354.468628,1081.000000 
	C1361.545898,1079.409058 1369.216431,1078.258057 1376.618042,1076.158569 
	C1443.545166,1057.174438 1484.085083,1013.355957 1498.519897,945.471252 
	C1500.339966,936.910950 1500.897217,927.938599 1500.901489,919.156616 
	C1501.023560,667.036438 1501.015259,414.916138 1500.989380,162.795883 
	C1500.982910,99.543037 1460.368164,38.895863 1401.952026,14.354837 
	C1386.020386,7.661832 1369.558472,3.370821 1352.189209,1.371413 
	C1541.629272,1.000000 1731.258545,1.000000 1920.943848,1.000000 
	C1920.943848,360.891663 1920.943848,720.783386 1920.943848,1081.000000 
	C1732.312500,1081.000000 1543.624878,1081.000000 1354.468628,1081.000000 
z"/>
<path fill="#FDFDFD" opacity="1.000000" stroke="none" 
	d="
M760.999512,868.509949 
	C747.519775,868.198425 734.256104,869.501282 721.612549,867.277832 
	C680.882996,860.115295 654.423584,827.439758 654.389954,785.835693 
	C654.320129,699.512512 654.384399,613.189270 654.360718,526.866028 
	C654.341675,457.208405 654.238098,387.550751 654.245422,317.893127 
	C654.248596,287.929016 677.437561,255.983292 706.046265,245.913467 
	C716.534851,242.221664 727.224060,240.453842 738.332703,240.457336 
	C892.314697,240.505615 1046.296631,240.489258 1200.278687,240.490448 
	C1244.657715,240.490784 1279.080688,272.548401 1282.151855,316.776794 
	C1282.440063,320.926666 1282.599609,325.094421 1282.600220,329.253937 
	C1282.622559,481.069489 1282.580444,632.885071 1282.656006,784.700623 
	C1282.668701,810.102417 1274.019409,831.626343 1254.864624,848.459045 
	C1239.672241,861.809692 1221.808228,868.530029 1201.449219,868.525879 
	C1054.799316,868.496094 908.149475,868.509949 760.999512,868.509949 
M724.168762,663.499939 
	C724.169678,698.997742 724.309082,734.496399 724.107056,769.993042 
	C724.019592,785.353821 736.235352,796.378845 750.471436,796.349060 
	C895.464417,796.046204 1040.458252,796.168091 1185.451904,796.131531 
	C1188.083740,796.130859 1190.824707,796.029480 1193.328735,795.319153 
	C1205.320435,791.917480 1211.588623,782.548584 1211.590698,768.285278 
	C1211.603149,682.622375 1211.597412,596.959534 1211.597900,511.296631 
	C1211.597900,509.669617 1211.598022,508.042572 1211.598022,506.224915 
	C1193.039551,506.224915 1174.971069,506.224915 1156.919556,506.224915 
	C1156.865356,506.776550 1156.753174,507.120270 1156.815674,507.428528 
	C1157.013794,508.404846 1157.256348,509.373627 1157.518433,510.335266 
	C1166.200806,542.184021 1166.680176,574.135437 1158.394653,606.110229 
	C1138.792236,681.758850 1073.846313,736.254456 998.647644,746.848389 
	C935.164673,755.791809 878.818237,738.931335 832.272949,694.617859 
	C786.458191,650.999939 767.879822,596.779785 775.844299,533.845520 
	C777.020203,524.554016 779.431458,515.418884 781.253113,506.301697 
	C762.355164,506.301697 743.430847,506.301697 724.168884,506.301697 
	C724.168884,558.568237 724.168884,610.534058 724.168762,663.499939 
M1033.578491,658.125977 
	C1039.448242,654.049622 1045.593140,650.314758 1051.144897,645.843567 
	C1101.662964,605.158081 1109.791138,529.360413 1069.171143,478.902405 
	C1024.808472,423.795441 943.947754,414.913605 888.626648,459.071289 
	C833.874634,502.774780 827.314270,581.596313 874.089722,633.731995 
	C913.680237,677.859375 979.609985,688.152771 1033.578491,658.125977 
M1097.331055,430.354095 
	C1102.894531,431.733398 1108.436523,434.190735 1114.025391,434.302917 
	C1136.680298,434.757751 1159.349731,434.517578 1182.013794,434.483002 
	C1198.817261,434.457397 1211.056519,422.439941 1211.154541,405.632202 
	C1211.282837,383.635468 1211.292358,361.636749 1211.154053,339.640167 
	C1211.047119,322.630463 1199.903198,310.635620 1182.998413,310.306366 
	C1159.343628,309.845673 1135.666016,309.838318 1112.011841,310.315796 
	C1094.802734,310.663208 1083.830200,322.762360 1083.824829,340.012238 
	C1083.818237,361.509766 1083.953857,383.008423 1083.770874,404.504395 
	C1083.678467,415.370148 1087.727173,423.860565 1097.331055,430.354095 
z"/>
<path fill="#072E4A" opacity="1.000000" stroke="none" 
	d="
M724.168823,662.999878 
	C724.168884,610.534058 724.168884,558.568237 724.168884,506.301697 
	C743.430847,506.301697 762.355164,506.301697 781.253113,506.301697 
	C779.431458,515.418884 777.020203,524.554016 775.844299,533.845520 
	C767.879822,596.779785 786.458191,650.999939 832.272949,694.617859 
	C878.818237,738.931335 935.164673,755.791809 998.647644,746.848389 
	C1073.846313,736.254456 1138.792236,681.758850 1158.394653,606.110229 
	C1166.680176,574.135437 1166.200806,542.184021 1157.518433,510.335266 
	C1157.256348,509.373627 1157.013794,508.404846 1156.815674,507.428528 
	C1156.753174,507.120270 1156.865356,506.776550 1156.919556,506.224915 
	C1174.971069,506.224915 1193.039551,506.224915 1211.598022,506.224915 
	C1211.598022,508.042572 1211.597900,509.669617 1211.597900,511.296631 
	C1211.597412,596.959534 1211.603149,682.622375 1211.590698,768.285278 
	C1211.588623,782.548584 1205.320435,791.917480 1193.328735,795.319153 
	C1190.824707,796.029480 1188.083740,796.130859 1185.451904,796.131531 
	C1040.458252,796.168091 895.464417,796.046204 750.471436,796.349060 
	C736.235352,796.378845 724.019592,785.353821 724.107056,769.993042 
	C724.309082,734.496399 724.169678,698.997742 724.168823,662.999878 
z"/>
<path fill="#062D49" opacity="1.000000" stroke="none" 
	d="
M1033.272705,658.331543 
	C979.609985,688.152771 913.680237,677.859375 874.089722,633.731995 
	C827.314270,581.596313 833.874634,502.774780 888.626648,459.071289 
	C943.947754,414.913605 1024.808472,423.795441 1069.171143,478.902405 
	C1109.791138,529.360413 1101.662964,605.158081 1051.144897,645.843567 
	C1045.593140,650.314758 1039.448242,654.049622 1033.272705,658.331543 
z"/>
<path fill="#072D49" opacity="1.000000" stroke="none" 
	d="
M1097.001831,430.185059 
	C1087.727173,423.860565 1083.678467,415.370148 1083.770874,404.504395 
	C1083.953857,383.008423 1083.818237,361.509766 1083.824829,340.012238 
	C1083.830200,322.762360 1094.802734,310.663208 1112.011841,310.315796 
	C1135.666016,309.838318 1159.343628,309.845673 1182.998413,310.306366 
	C1199.903198,310.635620 1211.047119,322.630463 1211.154053,339.640167 
	C1211.292358,361.636749 1211.282837,383.635468 1211.154541,405.632202 
	C1211.056519,422.439941 1198.817261,434.457397 1182.013794,434.483002 
	C1159.349731,434.517578 1136.680298,434.757751 1114.025391,434.302917 
	C1108.436523,434.190735 1102.894531,431.733398 1097.001831,430.185059 
z"/>
</svg>