<svg version="1.1" id="Layer_1" xmlns="http://www.w3.org/2000/svg" xmlns:xlink="http://www.w3.org/1999/xlink" x="0px" y="0px"
	 width="100%" viewBox="0 0 1920 1080" enable-background="new 0 0 1920 1080" xml:space="preserve">
<path fill="#EDD35C" opacity="1.000000" stroke="none" 
	d="
M568.000000,0.999998 
	C829.361389,1.000000 1090.722778,1.000000 1352.785645,1.313046 
	C1369.367798,3.809412 1384.883911,7.251382 1399.776245,13.469574 
	C1460.683472,38.900932 1500.952393,98.093102 1500.971313,164.551620 
	C1501.042847,415.498474 1501.067505,666.445374 1500.804932,917.392029 
	C1500.791504,930.215149 1499.502197,943.460083 1496.149902,955.785950 
	C1478.108643,1022.121155 1435.000244,1062.804565 1368.006592,1078.167114 
	C1363.365234,1079.231567 1358.670166,1080.061157 1354.000000,1081.000000 
	C1093.305298,1081.000000 832.610596,1081.000000 571.121704,1080.791504 
	C551.355164,1078.370605 532.762573,1074.333496 515.688843,1065.637451 
	C454.081696,1034.259644 421.416260,983.773071 421.264954,914.642822 
	C420.719696,665.536194 421.032959,416.427582 421.125031,167.319733 
	C421.128174,158.883484 421.807739,150.392090 422.895325,142.020355 
	C431.786072,73.583458 485.797668,16.853374 554.115784,3.931605 
	C558.762451,3.052733 563.372803,1.981674 568.000000,0.999998 
M1073.500000,240.365295 
	C962.017151,240.365158 850.534363,240.381714 739.051514,240.348877 
	C719.840210,240.343216 701.989868,244.805222 686.650574,256.741943 
	C664.867859,273.692780 654.201965,296.024261 654.226074,323.811707 
	C654.358948,477.121521 654.260254,630.431519 654.383667,783.741394 
	C654.389648,791.184021 655.002319,798.787048 656.589844,806.040222 
	C664.276245,841.157166 696.564575,868.930298 738.550842,868.809570 
	C891.859497,868.368591 1045.170288,868.647827 1198.480225,868.584900 
	C1204.122803,868.582581 1209.877808,868.421814 1215.389771,867.352173 
	C1255.793945,859.511108 1282.567871,827.523499 1282.618774,786.023254 
	C1282.807617,632.046997 1282.731201,478.070312 1282.649536,324.093842 
	C1282.639526,305.307312 1277.861084,287.834839 1266.171875,272.710541 
	C1249.182251,250.728394 1226.519653,240.411026 1198.980957,240.378174 
	C1157.487305,240.328690 1115.993652,240.365784 1073.500000,240.365295 
z"/>
<path fill="#FFFFFF" opacity="1.000000" stroke="none" 
	d="
M567.531372,0.999998 
	C563.372803,1.981674 558.762451,3.052733 554.115784,3.931605 
	C485.797668,16.853374 431.786072,73.583458 422.895325,142.020355 
	C421.807739,150.392090 421.128174,158.883484 421.125031,167.319733 
	C421.032959,416.427582 420.719696,665.536194 421.264954,914.642822 
	C421.416260,983.773071 454.081696,1034.259644 515.688843,1065.637451 
	C532.762573,1074.333496 551.355164,1078.370605 570.663696,1080.791504 
	C381.037384,1081.000000 191.074738,1081.000000 1.056058,1081.000000 
	C1.056058,721.108215 1.056058,361.216370 1.056058,1.000000 
	C189.687439,1.000000 378.375061,1.000000 567.531372,0.999998 
z"/>
<path fill="#FFFFFF" opacity="1.000000" stroke="none" 
	d="
M1354.468628,1081.000000 
	C1358.670166,1080.061157 1363.365234,1079.231567 1368.006592,1078.167114 
	C1435.000244,1062.804565 1478.108643,1022.121155 1496.149902,955.785950 
	C1499.502197,943.460083 1500.791504,930.215149 1500.804932,917.392029 
	C1501.067505,666.445374 1501.042847,415.498474 1500.971313,164.551620 
	C1500.952393,98.093102 1460.683472,38.900932 1399.776245,13.469574 
	C1384.883911,7.251382 1369.367798,3.809412 1353.243652,1.313046 
	C1542.296021,1.000000 1731.592041,1.000000 1920.944092,1.000000 
	C1920.944092,360.891724 1920.944092,720.783447 1920.944092,1081.000000 
	C1732.312500,1081.000000 1543.624878,1081.000000 1354.468628,1081.000000 
z"/>
<path fill="#FEFEFE" opacity="1.000000" stroke="none" 
	d="
M1074.000000,240.365692 
	C1115.993652,240.365784 1157.487305,240.328690 1198.980957,240.378174 
	C1226.519653,240.411026 1249.182251,250.728394 1266.171875,272.710541 
	C1277.861084,287.834839 1282.639526,305.307312 1282.649536,324.093842 
	C1282.731201,478.070312 1282.807617,632.046997 1282.618774,786.023254 
	C1282.567871,827.523499 1255.793945,859.511108 1215.389771,867.352173 
	C1209.877808,868.421814 1204.122803,868.582581 1198.480225,868.584900 
	C1045.170288,868.647827 891.859497,868.368591 738.550842,868.809570 
	C696.564575,868.930298 664.276245,841.157166 656.589844,806.040222 
	C655.002319,798.787048 654.389648,791.184021 654.383667,783.741394 
	C654.260254,630.431519 654.358948,477.121521 654.226074,323.811707 
	C654.201965,296.024261 664.867859,273.692780 686.650574,256.741943 
	C701.989868,244.805222 719.840210,240.343216 739.051514,240.348877 
	C850.534363,240.381714 962.017151,240.365158 1074.000000,240.365692 
M1163.934692,547.725403 
	C1163.118408,562.472229 1163.675537,577.450989 1161.230835,591.922729 
	C1153.603149,637.077820 1131.344727,674.327087 1096.086060,703.335999 
	C1052.223511,739.423767 1001.500305,754.264526 945.186157,747.680359 
	C892.956665,741.573730 849.335266,718.122192 816.030334,677.248840 
	C782.067871,635.568420 768.495361,587.616211 775.781433,534.134827 
	C777.050354,524.820557 779.352295,515.647034 781.197021,506.307556 
	C762.292725,506.307556 743.538086,506.307556 724.145935,506.307556 
	C724.145935,508.545563 724.145935,510.500000 724.145935,512.454468 
	C724.145935,597.441467 724.145813,682.428406 724.147217,767.415405 
	C724.147278,768.915100 724.107239,770.417786 724.184631,771.913940 
	C724.911194,785.971252 735.212646,796.125488 748.949158,796.127502 
	C894.926758,796.148621 1040.904297,796.132935 1186.881958,796.156921 
	C1196.266846,796.158447 1203.667847,792.114685 1207.752319,784.019653 
	C1210.260498,779.048584 1211.517700,772.914062 1211.532837,767.297058 
	C1211.761841,682.144043 1211.693726,596.990234 1211.681152,511.836639 
	C1211.680908,510.051239 1211.515381,508.265808 1211.418091,506.303680 
	C1193.053589,506.303680 1175.142822,506.303680 1157.487183,506.303680 
	C1159.652710,519.971130 1161.776855,533.376709 1163.934692,547.725403 
M1046.577759,456.914459 
	C1020.560059,437.499237 991.477600,429.497955 959.022827,431.786316 
	C937.498901,433.303925 917.885864,439.638824 899.865417,451.017029 
	C857.717896,477.629181 834.517517,527.547485 845.617920,578.611084 
	C857.859985,634.927124 912.385559,679.974426 978.093933,675.061096 
	C1001.402466,673.318176 1022.954346,666.418762 1041.883301,652.796143 
	C1082.294067,623.713562 1100.327637,584.171448 1093.433594,534.672424 
	C1088.991211,502.777069 1072.685059,477.071716 1046.577759,456.914459 
M1209.257202,416.502686 
	C1209.888428,413.093628 1211.041016,409.688477 1211.066528,406.274902 
	C1211.232544,383.961548 1211.269897,361.645599 1211.119019,339.332062 
	C1211.005127,322.491669 1199.554443,310.529236 1182.664673,310.259979 
	C1159.190430,309.885712 1135.700317,309.857239 1112.227417,310.273743 
	C1095.008057,310.579315 1083.863525,322.637878 1083.850342,339.822876 
	C1083.833740,361.637909 1083.786133,383.453156 1083.870605,405.267853 
	C1083.937866,422.646851 1095.746826,434.341705 1113.092163,434.359344 
	C1135.906372,434.382538 1158.720581,434.315552 1181.534668,434.384277 
	C1194.339966,434.422852 1203.458984,428.754089 1209.257202,416.502686 
z"/>
<path fill="#EDD35C" opacity="1.000000" stroke="none" 
	d="
M1163.917847,547.253906 
	C1161.776855,533.376709 1159.652710,519.971130 1157.487183,506.303680 
	C1175.142822,506.303680 1193.053589,506.303680 1211.418091,506.303680 
	C1211.515381,508.265808 1211.680908,510.051239 1211.681152,511.836639 
	C1211.693726,596.990234 1211.761841,682.144043 1211.532837,767.297058 
	C1211.517700,772.914062 1210.260498,779.048584 1207.752319,784.019653 
	C1203.667847,792.114685 1196.266846,796.158447 1186.881958,796.156921 
	C1040.904297,796.132935 894.926758,796.148621 748.949158,796.127502 
	C735.212646,796.125488 724.911194,785.971252 724.184631,771.913940 
	C724.107239,770.417786 724.147278,768.915100 724.147217,767.415405 
	C724.145813,682.428406 724.145935,597.441467 724.145935,512.454468 
	C724.145935,510.500000 724.145935,508.545563 724.145935,506.307556 
	C743.538086,506.307556 762.292725,506.307556 781.197021,506.307556 
	C779.352295,515.647034 777.050354,524.820557 775.781433,534.134827 
	C768.495361,587.616211 782.067871,635.568420 816.030334,677.248840 
	C849.335266,718.122192 892.956665,741.573730 945.186157,747.680359 
	C1001.500305,754.264526 1052.223511,739.423767 1096.086060,703.335999 
	C1131.344727,674.327087 1153.603149,637.077820 1161.230835,591.922729 
	C1163.675537,577.450989 1163.118408,562.472229 1163.917847,547.253906 
z"/>
<path fill="#EDD35C" opacity="1.000000" stroke="none" 
	d="
M1046.858398,457.132874 
	C1072.685059,477.071716 1088.991211,502.777069 1093.433594,534.672424 
	C1100.327637,584.171448 1082.294067,623.713562 1041.883301,652.796143 
	C1022.954346,666.418762 1001.402466,673.318176 978.093933,675.061096 
	C912.385559,679.974426 857.859985,634.927124 845.617920,578.611084 
	C834.517517,527.547485 857.717896,477.629181 899.865417,451.017029 
	C917.885864,439.638824 937.498901,433.303925 959.022827,431.786316 
	C991.477600,429.497955 1020.560059,437.499237 1046.858398,457.132874 
z"/>
<path fill="#EDD35C" opacity="1.000000" stroke="none" 
	d="
M1209.117188,416.866272 
	C1203.458984,428.754089 1194.339966,434.422852 1181.534668,434.384277 
	C1158.720581,434.315552 1135.906372,434.382538 1113.092163,434.359344 
	C1095.746826,434.341705 1083.937866,422.646851 1083.870605,405.267853 
	C1083.786133,383.453156 1083.833740,361.637909 1083.850342,339.822876 
	C1083.863525,322.637878 1095.008057,310.579315 1112.227417,310.273743 
	C1135.700317,309.857239 1159.190430,309.885712 1182.664673,310.259979 
	C1199.554443,310.529236 1211.005127,322.491669 1211.119019,339.332062 
	C1211.269897,361.645599 1211.232544,383.961548 1211.066528,406.274902 
	C1211.041016,409.688477 1209.888428,413.093628 1209.117188,416.866272 
z"/>
</svg>