<svg version="1.1" id="Layer_1" xmlns="http://www.w3.org/2000/svg" xmlns:xlink="http://www.w3.org/1999/xlink" x="0px" y="0px"
	 width="100%" viewBox="0 0 1920 1080" enable-background="new 0 0 1920 1080" xml:space="preserve">
<path fill="#062D49" opacity="1.000000" stroke="none" 
	d="
M1352.000000,1081.000000 
	C1091.971924,1081.000000 831.943909,1081.000000 571.247742,1080.647949 
	C535.729309,1077.063354 504.694794,1064.324097 478.369720,1041.368896 
	C439.922363,1007.843079 421.025604,965.119141 421.023773,914.092590 
	C421.014923,665.519287 420.997772,416.945923 421.100861,168.372620 
	C421.104919,158.584198 421.657257,148.703568 423.048096,139.023071 
	C432.393188,73.977570 485.166382,18.164930 549.660889,4.806283 
	C556.733276,3.341386 563.885071,2.259518 571.000000,0.999999 
	C830.694702,1.000000 1090.389404,1.000000 1350.773071,1.346378 
	C1375.940430,3.571294 1398.886841,10.698830 1419.712402,23.529823 
	C1473.023193,56.375748 1500.673218,104.688133 1500.796631,167.032883 
	C1501.289917,416.329315 1501.081177,665.627380 1500.786499,914.924438 
	C1500.770020,928.936340 1498.959717,943.247620 1495.770996,956.902710 
	C1480.970337,1020.282410 1424.989258,1070.556763 1360.917725,1079.089844 
	C1357.913574,1079.489990 1354.971191,1080.352661 1352.000000,1081.000000 
M923.691895,599.499817 
	C923.691895,723.595154 923.691895,847.690491 923.691895,971.965210 
	C969.792175,971.965210 1015.341248,971.965210 1061.158691,971.965210 
	C1061.158691,969.736145 1061.158691,967.924561 1061.158691,966.112976 
	C1061.158691,917.448608 1061.178467,868.784180 1061.149170,820.119812 
	C1061.137207,800.123657 1061.045166,780.127380 1060.942505,760.131409 
	C1060.833740,738.919006 1062.291138,717.864990 1067.011230,697.118164 
	C1072.902710,671.222839 1086.522827,651.570618 1112.625488,643.055359 
	C1121.192017,640.260681 1130.486938,639.342773 1139.535889,638.447632 
	C1167.876221,635.644043 1196.738770,646.817749 1207.885864,679.136963 
	C1213.721558,696.057007 1215.883057,713.878296 1215.947388,731.727600 
	C1216.229126,809.889832 1216.172607,888.053284 1216.238770,966.216248 
	C1216.240234,968.011047 1216.239014,969.805908 1216.239014,971.881104 
	C1262.567139,971.881104 1308.447021,971.881104 1354.760986,971.881104 
	C1354.760986,970.147400 1354.761108,968.679138 1354.761108,967.210938 
	C1354.761108,885.048096 1354.859131,802.885132 1354.682251,720.722656 
	C1354.644775,703.253906 1354.343750,685.724304 1352.859497,668.334045 
	C1350.440063,639.987671 1344.006470,612.516602 1331.067993,586.902771 
	C1318.771362,562.559753 1301.674438,542.731445 1275.910156,532.265442 
	C1248.837280,521.267883 1220.493652,515.791260 1191.171509,515.842407 
	C1165.505859,515.887146 1140.884155,520.593506 1117.837769,532.255737 
	C1094.592529,544.018677 1076.108154,561.180481 1061.245850,582.426514 
	C1059.937866,584.296265 1058.321045,585.949890 1056.847778,587.703857 
	C1056.381470,587.463379 1055.915283,587.222900 1055.448975,586.982422 
	C1055.448975,566.937805 1055.448975,546.893250 1055.448975,526.784424 
	C1011.261841,526.784424 967.675049,526.784424 923.691895,526.784424 
	C923.691895,550.881287 923.691895,574.690491 923.691895,599.499817 
M714.501221,972.167480 
	C755.085205,972.167480 795.669250,972.167480 836.047485,972.167480 
	C836.047485,823.264709 836.047485,675.063293 836.047485,526.717285 
	C789.912170,526.717285 744.146667,526.717285 698.235352,526.717285 
	C698.235352,675.276184 698.235352,823.613220 698.235352,972.167480 
	C703.538208,972.167480 708.520325,972.167480 714.501221,972.167480 
M806.682312,315.728973 
	C771.517822,296.392334 729.199402,305.238220 705.115479,334.962372 
	C666.119873,383.090515 691.928467,453.392365 752.734985,465.575714 
	C800.449280,475.135834 847.501465,437.205475 847.967834,388.541077 
	C848.272522,356.748352 834.379211,332.662018 806.682312,315.728973 
z"/>
<path fill="#FFFFFF" opacity="1.000000" stroke="none" 
	d="
M1352.468628,1081.000000 
	C1354.971191,1080.352661 1357.913574,1079.489990 1360.917725,1079.089844 
	C1424.989258,1070.556763 1480.970337,1020.282410 1495.770996,956.902710 
	C1498.959717,943.247620 1500.770020,928.936340 1500.786499,914.924438 
	C1501.081177,665.627380 1501.289917,416.329315 1500.796631,167.032883 
	C1500.673218,104.688133 1473.023193,56.375748 1419.712402,23.529823 
	C1398.886841,10.698830 1375.940430,3.571294 1351.230957,1.346378 
	C1540.962646,1.000000 1730.925171,1.000000 1920.943848,1.000000 
	C1920.943848,360.891785 1920.943848,720.783630 1920.943848,1081.000000 
	C1731.645874,1081.000000 1542.291626,1081.000000 1352.468628,1081.000000 
z"/>
<path fill="#FFFFFF" opacity="1.000000" stroke="none" 
	d="
M570.531372,0.999999 
	C563.885071,2.259518 556.733276,3.341386 549.660889,4.806283 
	C485.166382,18.164930 432.393188,73.977570 423.048096,139.023071 
	C421.657257,148.703568 421.104919,158.584198 421.100861,168.372620 
	C420.997772,416.945923 421.014923,665.519287 421.023773,914.092590 
	C421.025604,965.119141 439.922363,1007.843079 478.369720,1041.368896 
	C504.694794,1064.324097 535.729309,1077.063354 570.789795,1080.647949 
	C381.037323,1081.000000 191.074646,1081.000000 1.055990,1081.000000 
	C1.055990,721.108032 1.055990,361.216095 1.055990,1.000000 
	C190.687439,1.000000 380.375061,1.000000 570.531372,0.999999 
z"/>
<path fill="#FEFFFF" opacity="1.000000" stroke="none" 
	d="
M923.691895,598.999756 
	C923.691895,574.690491 923.691895,550.881287 923.691895,526.784424 
	C967.675049,526.784424 1011.261841,526.784424 1055.448975,526.784424 
	C1055.448975,546.893250 1055.448975,566.937805 1055.448975,586.982422 
	C1055.915283,587.222900 1056.381470,587.463379 1056.847778,587.703857 
	C1058.321045,585.949890 1059.937866,584.296265 1061.245850,582.426514 
	C1076.108154,561.180481 1094.592529,544.018677 1117.837769,532.255737 
	C1140.884155,520.593506 1165.505859,515.887146 1191.171509,515.842407 
	C1220.493652,515.791260 1248.837280,521.267883 1275.910156,532.265442 
	C1301.674438,542.731445 1318.771362,562.559753 1331.067993,586.902771 
	C1344.006470,612.516602 1350.440063,639.987671 1352.859497,668.334045 
	C1354.343750,685.724304 1354.644775,703.253906 1354.682251,720.722656 
	C1354.859131,802.885132 1354.761108,885.048096 1354.761108,967.210938 
	C1354.761108,968.679138 1354.760986,970.147400 1354.760986,971.881104 
	C1308.447021,971.881104 1262.567139,971.881104 1216.239014,971.881104 
	C1216.239014,969.805908 1216.240234,968.011047 1216.238770,966.216248 
	C1216.172607,888.053284 1216.229126,809.889832 1215.947388,731.727600 
	C1215.883057,713.878296 1213.721558,696.057007 1207.885864,679.136963 
	C1196.738770,646.817749 1167.876221,635.644043 1139.535889,638.447632 
	C1130.486938,639.342773 1121.192017,640.260681 1112.625488,643.055359 
	C1086.522827,651.570618 1072.902710,671.222839 1067.011230,697.118164 
	C1062.291138,717.864990 1060.833740,738.919006 1060.942505,760.131409 
	C1061.045166,780.127380 1061.137207,800.123657 1061.149170,820.119812 
	C1061.178467,868.784180 1061.158691,917.448608 1061.158691,966.112976 
	C1061.158691,967.924561 1061.158691,969.736145 1061.158691,971.965210 
	C1015.341248,971.965210 969.792175,971.965210 923.691895,971.965210 
	C923.691895,847.690491 923.691895,723.595154 923.691895,598.999756 
z"/>
<path fill="#FFFFFF" opacity="1.000000" stroke="none" 
	d="
M714.001831,972.167480 
	C708.520325,972.167480 703.538208,972.167480 698.235352,972.167480 
	C698.235352,823.613220 698.235352,675.276184 698.235352,526.717285 
	C744.146667,526.717285 789.912170,526.717285 836.047485,526.717285 
	C836.047485,675.063293 836.047485,823.264709 836.047485,972.167480 
	C795.669250,972.167480 755.085205,972.167480 714.001831,972.167480 
z"/>
<path fill="#FEFEFE" opacity="1.000000" stroke="none" 
	d="
M807.007874,315.903687 
	C834.379211,332.662018 848.272522,356.748352 847.967834,388.541077 
	C847.501465,437.205475 800.449280,475.135834 752.734985,465.575714 
	C691.928467,453.392365 666.119873,383.090515 705.115479,334.962372 
	C729.199402,305.238220 771.517822,296.392334 807.007874,315.903687 
z"/>
</svg>