<svg version="1.1" id="Layer_1" xmlns="http://www.w3.org/2000/svg" xmlns:xlink="http://www.w3.org/1999/xlink" x="0px" y="0px"
	 width="100%" viewBox="0 0 1920 1080" enable-background="new 0 0 1920 1080" xml:space="preserve">
<path fill="#062D49" opacity="1.000000" stroke="none" 
	d="
M568.000000,1.000000 
	C829.028015,1.000000 1090.056030,1.000000 1351.762451,1.342372 
	C1375.239014,3.997179 1396.950928,10.255987 1416.657349,21.889938 
	C1471.758423,54.419788 1500.729126,102.979858 1500.833740,166.985123 
	C1501.241211,416.586548 1501.057617,666.189087 1500.828735,915.790955 
	C1500.817383,928.178162 1499.761597,940.930420 1496.729004,952.887939 
	C1480.338135,1017.518372 1439.557007,1058.697998 1375.181274,1076.215698 
	C1366.962158,1078.452393 1358.402100,1079.435913 1350.000000,1081.000000 
	C1090.638672,1081.000000 831.277283,1081.000000 571.249756,1080.646484 
	C566.619507,1079.804810 562.628418,1079.474976 558.695374,1078.804688 
	C478.968414,1065.215942 421.109558,997.548157 421.058533,916.941162 
	C420.899841,666.315063 420.997589,415.688721 421.006226,165.062485 
	C421.006866,146.595581 423.644135,128.466583 430.192993,111.210579 
	C452.497711,52.438545 494.440552,16.423676 556.150146,3.676173 
	C560.115234,2.857106 564.050720,1.895368 568.000000,1.000000 
M594.408264,740.000793 
	C606.497803,773.192383 629.179565,795.324280 663.721436,803.476379 
	C678.200623,806.893494 693.378052,807.974548 708.308777,808.742371 
	C759.220032,811.360596 810.148193,814.792847 861.096558,815.315674 
	C973.731934,816.471558 1086.425903,818.380432 1198.919067,809.910522 
	C1217.510986,808.510681 1236.258667,807.552734 1254.563354,804.302124 
	C1292.937134,797.487366 1322.777344,767.102783 1330.887695,728.915771 
	C1338.142822,694.755188 1341.812988,660.165710 1342.790039,625.333008 
	C1344.510010,564.016052 1344.965332,502.682770 1340.895386,441.426056 
	C1339.150391,415.162476 1336.377563,388.897522 1328.855591,363.599457 
	C1318.207397,327.787262 1294.571411,304.210815 1257.989990,295.613190 
	C1242.868652,292.059235 1226.986084,291.547913 1211.402588,290.192291 
	C1158.747925,285.611877 1105.963745,283.561310 1053.125244,283.369659 
	C953.305725,283.007629 853.456177,281.257965 753.723694,287.136871 
	C726.299561,288.753418 698.853699,290.864227 671.593384,294.188385 
	C633.690186,298.810303 601.992371,327.780975 592.779297,364.775177 
	C583.636597,401.486755 580.243835,438.983856 579.271912,476.643677 
	C577.620911,540.620911 576.725403,604.626587 582.065308,668.505005 
	C584.063049,692.403015 587.424500,716.131348 594.408264,740.000793 
z"/>
<path fill="#FFFFFF" opacity="1.000000" stroke="none" 
	d="
M567.531372,1.000000 
	C564.050720,1.895368 560.115234,2.857106 556.150146,3.676173 
	C494.440552,16.423676 452.497711,52.438545 430.192993,111.210579 
	C423.644135,128.466583 421.006866,146.595581 421.006226,165.062485 
	C420.997589,415.688721 420.899841,666.315063 421.058533,916.941162 
	C421.109558,997.548157 478.968414,1065.215942 558.695374,1078.804688 
	C562.628418,1079.474976 566.619507,1079.804810 570.791748,1080.646484 
	C381.037384,1081.000000 191.074738,1081.000000 1.112118,1081.000000 
	C1.074746,1080.870728 1.004612,1080.741455 1.004610,1080.612183 
	C0.999994,720.849609 1.000000,361.087097 1.000000,1.000000 
	C189.687439,1.000000 378.375061,1.000000 567.531372,1.000000 
z"/>
<path fill="#FFFFFF" opacity="1.000000" stroke="none" 
	d="
M1350.468628,1081.000000 
	C1358.402100,1079.435913 1366.962158,1078.452393 1375.181274,1076.215698 
	C1439.557007,1058.697998 1480.338135,1017.518372 1496.729004,952.887939 
	C1499.761597,940.930420 1500.817383,928.178162 1500.828735,915.790955 
	C1501.057617,666.189087 1501.241211,416.586548 1500.833740,166.985123 
	C1500.729126,102.979858 1471.758423,54.419788 1416.657349,21.889938 
	C1396.950928,10.255987 1375.239014,3.997179 1352.220459,1.342372 
	C1541.629395,1.000000 1731.258667,1.000000 1920.888062,0.999995 
	C1920.925415,1.129317 1920.995361,1.258644 1920.995361,1.387972 
	C1921.000000,361.150543 1921.000000,720.913086 1921.000000,1081.000000 
	C1730.979248,1081.000000 1540.958252,1081.000000 1350.468628,1081.000000 
z"/>
<path fill="#FFFFFF" opacity="1.000000" stroke="none" 
	d="
M594.268066,739.629211 
	C587.424500,716.131348 584.063049,692.403015 582.065308,668.505005 
	C576.725403,604.626587 577.620911,540.620911 579.271912,476.643677 
	C580.243835,438.983856 583.636597,401.486755 592.779297,364.775177 
	C601.992371,327.780975 633.690186,298.810303 671.593384,294.188385 
	C698.853699,290.864227 726.299561,288.753418 753.723694,287.136871 
	C853.456177,281.257965 953.305725,283.007629 1053.125244,283.369659 
	C1105.963745,283.561310 1158.747925,285.611877 1211.402588,290.192291 
	C1226.986084,291.547913 1242.868652,292.059235 1257.989990,295.613190 
	C1294.571411,304.210815 1318.207397,327.787262 1328.855591,363.599457 
	C1336.377563,388.897522 1339.150391,415.162476 1340.895386,441.426056 
	C1344.965332,502.682770 1344.510010,564.016052 1342.790039,625.333008 
	C1341.812988,660.165710 1338.142822,694.755188 1330.887695,728.915771 
	C1322.777344,767.102783 1292.937134,797.487366 1254.563354,804.302124 
	C1236.258667,807.552734 1217.510986,808.510681 1198.919067,809.910522 
	C1086.425903,818.380432 973.731934,816.471558 861.096558,815.315674 
	C810.148193,814.792847 759.220032,811.360596 708.308777,808.742371 
	C693.378052,807.974548 678.200623,806.893494 663.721436,803.476379 
	C629.179565,795.324280 606.497803,773.192383 594.268066,739.629211 
M880.495300,474.499634 
	C880.495300,547.148071 880.495300,619.796509 880.495300,693.265564 
	C955.051636,645.190186 1028.623535,597.749634 1102.679810,549.996704 
	C1028.406128,502.272369 954.877991,455.027100 880.495361,407.232758 
	C880.495361,429.986664 880.495361,451.743134 880.495300,474.499634 
z"/>
<path fill="#062D49" opacity="1.000000" stroke="none" 
	d="
M880.495361,473.999634 
	C880.495361,451.743134 880.495361,429.986664 880.495361,407.232758 
	C954.877991,455.027100 1028.406128,502.272369 1102.679810,549.996704 
	C1028.623535,597.749634 955.051636,645.190186 880.495300,693.265564 
	C880.495300,619.796509 880.495300,547.148071 880.495361,473.999634 
z"/>
</svg>